<svg width="24" height="24" viewBox="0 0 24 24" fill="none" xmlns="http://www.w3.org/2000/svg">
<path fill-rule="evenodd" clip-rule="evenodd" d="M14.4818 19.0841C15.3735 18.7698 16.1873 18.2913 16.8885 17.6853C17.2725 17.3538 17.1952 16.7343 16.7565 16.4801L14.6258 15.2501C14.1255 14.9613 13.5 15.3221 13.5 15.9003V18.3678C13.5 18.8771 14.001 19.2536 14.4818 19.0841Z" stroke="#A535E5" stroke-linecap="round" stroke-linejoin="round"/>
<path fill-rule="evenodd" clip-rule="evenodd" d="M9.51821 4.91616C8.62571 5.22966 7.81196 5.70891 7.11071 6.31491C6.72671 6.64641 6.80396 7.26591 7.24346 7.51941L9.37421 8.74941C9.87371 9.03891 10.4992 8.67741 10.4992 8.09991V5.63241C10.4992 5.12316 9.99821 4.74666 9.51821 4.91616Z" stroke="#A535E5" stroke-linecap="round" stroke-linejoin="round"/>
<path fill-rule="evenodd" clip-rule="evenodd" d="M19.3781 13.391C19.5521 12.4618 19.5438 11.5175 19.3698 10.607C19.2746 10.1083 18.6993 9.86529 18.2598 10.1195L16.1291 11.3495C15.6288 11.6383 15.6288 12.3605 16.1291 12.6493L18.2658 13.883C18.7076 14.1373 19.2843 13.8913 19.3781 13.391Z" stroke="#A535E5" stroke-linecap="round" stroke-linejoin="round"/>
<path fill-rule="evenodd" clip-rule="evenodd" d="M4.62254 10.6071C4.44854 11.5363 4.45679 12.4806 4.63079 13.3911C4.72604 13.8898 5.30129 14.1328 5.74079 13.8786L7.87154 12.6486C8.37179 12.3598 8.37179 11.6376 7.87154 11.3488L5.73404 10.1151C5.29304 9.86081 4.71629 10.1068 4.62254 10.6071Z" stroke="#A535E5" stroke-linecap="round" stroke-linejoin="round"/>
<path fill-rule="evenodd" clip-rule="evenodd" d="M16.8923 6.30799C16.1745 5.69224 15.3525 5.22724 14.4772 4.92274C13.998 4.75624 13.5 5.13274 13.5 5.63974V8.09974C13.5 8.67724 14.1255 9.03874 14.6258 8.74999L16.7625 7.51624C17.2035 7.26199 17.2785 6.63949 16.8923 6.30799V6.30799Z" stroke="#A535E5" stroke-linecap="round" stroke-linejoin="round"/>
<path fill-rule="evenodd" clip-rule="evenodd" d="M7.10554 17.692C7.82329 18.3077 8.64529 18.7727 9.52054 19.0772C9.99979 19.2437 10.4978 18.8672 10.4978 18.3602V15.9002C10.4978 15.3227 9.87229 14.9612 9.37204 15.25L7.23529 16.4837C6.79429 16.738 6.71929 17.3605 7.10554 17.692V17.692Z" stroke="#A535E5" stroke-linecap="round" stroke-linejoin="round"/>
</svg>
