<svg width="24" height="24" viewBox="0 0 24 24" fill="none" xmlns="http://www.w3.org/2000/svg">
<path fill-rule="evenodd" clip-rule="evenodd" d="M17.1783 6.845L14.8217 4.48833C14.5092 4.17583 14.085 4 13.6433 4H7.66667C6.74583 4 6 4.74583 6 5.66667V17.3333C6 18.2542 6.74583 19 7.66667 19H16C16.9208 19 17.6667 18.2542 17.6667 17.3333V8.02333C17.6667 7.58167 17.4908 7.1575 17.1783 6.845V6.845Z" stroke="#A535E5" stroke-linecap="round" stroke-linejoin="round"/>
<path fill-rule="evenodd" clip-rule="evenodd" d="M12.668 15.25V15.25C12.668 14.56 13.228 14 13.918 14V14C14.608 14 15.168 14.56 15.168 15.25V15.25C15.168 15.94 14.608 16.5 13.918 16.5V16.5C13.228 16.5 12.668 15.94 12.668 15.25Z" stroke="#A535E5" stroke-linecap="round" stroke-linejoin="round"/>
<path d="M8.5 9.00065H15.1667" stroke="#A535E5" stroke-linecap="round" stroke-linejoin="round"/>
<path d="M8.5 11.5007H15.1667" stroke="#A535E5" stroke-linecap="round" stroke-linejoin="round"/>
<path d="M8.5 14.0007H10.1667" stroke="#A535E5" stroke-linecap="round" stroke-linejoin="round"/>
</svg>
