<svg width="24" height="24" viewBox="0 0 24 24" fill="none" xmlns="http://www.w3.org/2000/svg">
<path fill-rule="evenodd" clip-rule="evenodd" d="M8.66797 12.9923C8.66797 14.409 10.6463 15.4548 11.5555 15.8623C11.839 15.9914 12.1645 15.9914 12.448 15.8623C13.3563 15.4548 15.3346 14.4048 15.3346 12.9923V10.2723C15.3345 9.80391 15.041 9.38578 14.6005 9.22648L12.9038 8.61648C12.3196 8.40648 11.6805 8.40648 11.0963 8.61648L9.4013 9.22648C8.96133 9.38677 8.66838 9.80489 8.66797 10.2732V12.9923Z" stroke="#A535E5" stroke-linecap="round" stroke-linejoin="round"/>
<path fill-rule="evenodd" clip-rule="evenodd" d="M19.5 12V12C19.5 16.1421 16.1421 19.5 12 19.5V19.5C7.85787 19.5 4.5 16.1421 4.5 12V12C4.5 7.85787 7.85787 4.5 12 4.5V4.5C13.9891 4.5 15.8968 5.29018 17.3033 6.6967C18.7098 8.10322 19.5 10.0109 19.5 12V12Z" stroke="#A535E5" stroke-linecap="round" stroke-linejoin="round"/>
</svg>
