<svg width="24" height="24" viewBox="0 0 24 24" fill="none" xmlns="http://www.w3.org/2000/svg">
<path d="M13.4744 10.5282C14.288 11.3418 14.288 12.6608 13.4744 13.4744C12.6608 14.288 11.3418 14.288 10.5282 13.4744C9.71457 12.6608 9.71457 11.3418 10.5282 10.5282C11.3418 9.71457 12.6608 9.71457 13.4744 10.5282" stroke="#A535E5" stroke-linecap="round" stroke-linejoin="round"/>
<path fill-rule="evenodd" clip-rule="evenodd" d="M14.3753 5.43415L14.8611 5.59582C15.3061 5.74415 15.6069 6.16082 15.6069 6.62998V7.32748C15.6069 7.92082 16.0803 8.40498 16.6736 8.41748L17.3719 8.43248C17.7761 8.44082 18.1428 8.67332 18.3236 9.03498L18.5528 9.49332C18.7628 9.91332 18.6803 10.42 18.3486 10.7517L17.8553 11.245C17.4361 11.6642 17.4286 12.3416 17.8386 12.77L18.3219 13.275C18.6019 13.5675 18.6969 13.99 18.5686 14.3741L18.4069 14.86C18.2586 15.305 17.8419 15.6058 17.3728 15.6058H16.6753C16.0819 15.6058 15.5978 16.0792 15.5853 16.6725L15.5703 17.3708C15.5619 17.775 15.3294 18.1416 14.9678 18.3225L14.5094 18.5517C14.0894 18.7617 13.5828 18.6792 13.2511 18.3475L12.7578 17.8542C12.3386 17.435 11.6611 17.4275 11.2328 17.8375L10.7278 18.3208C10.4353 18.6008 10.0128 18.6958 9.6286 18.5675L9.14277 18.4058C8.69777 18.2575 8.39694 17.8408 8.39694 17.3716V16.6742C8.39694 16.0808 7.9236 15.5967 7.33027 15.5842L6.63194 15.5691C6.22777 15.5608 5.8611 15.3283 5.68027 14.9667L5.4511 14.5083C5.2411 14.0883 5.3236 13.5816 5.65527 13.25L6.1486 12.7566C6.56777 12.3375 6.57527 11.66 6.16527 11.2317L5.68194 10.7267C5.4011 10.4333 5.3061 10.01 5.43444 9.62665L5.5961 9.14082C5.74444 8.69582 6.1611 8.39498 6.63027 8.39498H7.32777C7.9211 8.39498 8.40527 7.92165 8.41777 7.32832L8.43277 6.62998C8.44277 6.22582 8.67444 5.85915 9.0361 5.67832L9.49444 5.44915C9.91444 5.23915 10.4211 5.32165 10.7528 5.65332L11.2461 6.14665C11.6653 6.56582 12.3428 6.57332 12.7711 6.16332L13.2761 5.67998C13.5686 5.40082 13.9919 5.30582 14.3753 5.43415V5.43415Z" stroke="#A535E5" stroke-linecap="round" stroke-linejoin="round"/>
</svg>
