<svg width="39" height="38" viewBox="0 0 39 38" fill="none" xmlns="http://www.w3.org/2000/svg">
<path d="M12.6631 17.1613V15.9355H11.4249V17.1613H10.1868V25.7419H11.4249V26.9677H12.6631V25.7419C14.0289 25.7419 15.1395 24.6424 15.1395 23.2903C15.1395 22.5591 14.8145 21.9009 14.2994 21.4516C14.8145 21.0024 15.1395 20.3441 15.1395 19.6129C15.1395 18.2608 14.0289 17.1613 12.6631 17.1613ZM12.6631 24.5161H11.4249V22.0645H12.6631C13.346 22.0645 13.9013 22.6143 13.9013 23.2903C13.9013 23.9664 13.346 24.5161 12.6631 24.5161ZM12.6631 20.8387H11.4249V18.3871H12.6631C13.346 18.3871 13.9013 18.9369 13.9013 19.6129C13.9013 20.2889 13.346 20.8387 12.6631 20.8387ZM33.0932 1.22581H36.5515L25.4078 12.2581H21.1602C21.2698 11.6556 21.3305 11.0415 21.3305 10.4194C21.3305 4.674 16.6092 0 10.8059 0C5.00246 0 0.28125 4.674 0.28125 10.4194C0.28125 13.7021 1.84508 16.777 4.4849 18.7438C4.17411 19.5908 3.99582 20.4998 3.99582 21.4516C3.99582 22.4549 4.19207 23.4117 4.53567 24.2967C1.04274 25.4526 0.28125 27.3643 0.28125 28.8065V32.4839C0.28125 37.4625 8.50716 38 12.044 38C15.0857 38 21.5899 37.5998 23.3537 34.3226H38.6651V9.80645H33.7123V33.0968H32.4741V12.2581H27.5214V33.0968H26.2832V14.7097H21.3305V25.0677C20.8358 24.787 20.2483 24.5272 19.5524 24.2967C19.896 23.4117 20.0923 22.4549 20.0923 21.4516C20.0923 19.8679 19.6174 18.3945 18.8095 17.1527C19.7443 16.066 20.439 14.8212 20.8568 13.4839H25.9204L37.4269 2.09245V5.51613H38.6651V0H33.0932V1.22581ZM34.9505 11.0323H37.4269V33.0968H34.9505V11.0323ZM15.7444 9.80645C15.7097 8.49545 15.5673 7.25677 15.3308 6.12903H19.0132C19.6081 7.23961 19.9728 8.48565 20.0613 9.80645H15.7444ZM12.044 13.4839C10.4746 13.4839 9.01357 13.9374 7.77477 14.7097H7.54942C7.29311 13.5672 7.147 12.3218 7.1111 11.0323H14.5056C14.4783 11.978 14.3898 12.9016 14.2387 13.7928C13.5398 13.596 12.8055 13.4839 12.044 13.4839ZM1.54111 11.0323H5.87291C5.90696 12.3102 6.03759 13.5562 6.27718 14.7097H2.59357C1.99243 13.5825 1.62902 12.3316 1.54111 11.0323ZM1.55101 9.80645C1.63954 8.48565 2.00419 7.23961 2.59914 6.12903H6.28151C6.04502 7.25677 5.90263 8.49545 5.86796 9.80645H1.55101ZM7.10491 9.80645C7.14267 8.45623 7.30054 7.21877 7.54632 6.12903H14.0648C14.3112 7.21877 14.469 8.45623 14.5062 9.80645H7.10491ZM10.8059 1.22581C11.8682 1.22581 13.0018 2.61342 13.7335 4.90323H7.87816C8.60992 2.61342 9.74349 1.22581 10.8059 1.22581ZM18.2176 4.90323H15.0237C14.6362 3.57445 14.1118 2.45345 13.4859 1.6199C15.3971 2.19113 17.0432 3.36055 18.2176 4.90323ZM8.12579 1.6199C7.50051 2.45345 6.97613 3.57445 6.58858 4.90323H3.39406C4.56848 3.36055 6.21465 2.19113 8.12579 1.6199ZM3.38353 15.9355H6.24994C5.76766 16.4319 5.34792 16.9878 5.00742 17.594C4.39142 17.1061 3.84847 16.5478 3.38353 15.9355ZM1.51944 32.4839V31.6675C2.16949 32.2933 3.02941 32.7756 3.99582 33.144V35.4736C2.56014 34.8368 1.51944 33.8905 1.51944 32.4839ZM18.8541 33.5448V35.9253C18.0567 36.1644 17.2054 36.3354 16.3777 36.4592V34.0406C17.2048 33.9248 18.0474 33.7648 18.8541 33.5448ZM15.1395 36.6136C14.1582 36.7135 13.281 36.7527 12.6631 36.7662V34.3165C13.385 34.3036 14.235 34.2662 15.1395 34.1822V36.6136ZM11.4249 36.7668C10.8071 36.7527 9.92983 36.7135 8.94857 36.6142V34.1828C9.85307 34.2668 10.7031 34.3042 11.4249 34.3171V36.7668ZM7.71038 36.4585C6.88265 36.3347 6.0314 36.1637 5.234 35.9247V33.5442C6.04068 33.7642 6.88327 33.9248 7.71038 34.04V36.4585ZM20.0923 35.4736V33.144C21.0587 32.7756 21.9186 32.2933 22.5686 31.6675V32.4839C22.5686 33.8905 21.5279 34.8368 20.0923 35.4736ZM28.7596 13.4839H31.236V33.0968H28.7596V13.4839ZM22.5686 15.9355H25.045V33.0968H23.7573C23.7864 32.8994 23.8068 32.6972 23.8068 32.4839V28.8065C23.8068 27.9435 23.535 26.9126 22.5686 25.9761V15.9355ZM22.5686 28.8065C22.5686 32.8896 13.8016 33.0968 12.044 33.0968C10.2864 33.0968 1.51944 32.8896 1.51944 28.8065C1.51944 27.2975 2.72543 26.163 5.0749 25.4195C5.29034 25.7885 5.53055 26.1416 5.80109 26.4707C4.24036 26.904 2.75763 27.6266 2.75763 28.8065C2.75763 30.9124 7.57108 31.871 12.044 31.871C16.517 31.871 21.3305 30.9124 21.3305 28.8065C21.3305 27.6266 19.8477 26.904 18.287 26.4707C18.5575 26.1416 18.7977 25.7885 19.0132 25.4195C21.3626 26.163 22.5686 27.2975 22.5686 28.8065ZM17.2847 27.4856C19.3952 27.9588 20.0923 28.5723 20.0923 28.8065C20.0923 29.3562 17.354 30.6452 12.044 30.6452C6.73407 30.6452 3.99582 29.3562 3.99582 28.8065C3.99582 28.5723 4.69291 27.9588 6.80341 27.4856C8.21309 28.6875 10.0419 29.4194 12.044 29.4194C14.0462 29.4194 15.875 28.6875 17.2847 27.4856ZM12.044 28.1935C8.28923 28.1935 5.234 25.1689 5.234 21.4516C5.234 17.7344 8.28923 14.7097 12.044 14.7097C15.7988 14.7097 18.8541 17.7344 18.8541 21.4516C18.8541 25.1689 15.7988 28.1935 12.044 28.1935ZM15.4175 14.2273C15.6045 13.1976 15.7134 12.1281 15.7431 11.0323H20.0625C19.9363 12.9065 19.2354 14.6864 18.0412 16.1567C17.3125 15.3483 16.4223 14.6895 15.4175 14.2273Z" fill="url(#paint0_linear)"/>
<defs>
<linearGradient id="paint0_linear" x1="19.4732" y1="38" x2="19.4732" y2="0" gradientUnits="userSpaceOnUse">
<stop stop-color="#9F2FFF"/>
<stop offset="1" stop-color="#0BB1D3"/>
</linearGradient>
</defs>
</svg>
