<svg width="38" height="38" viewBox="0 0 38 38" fill="none" xmlns="http://www.w3.org/2000/svg">
<path d="M18.125 14.8438V16.0312H16.9375V21.9688H18.125V23.1562H19.3125V21.8595C20.0018 21.6137 20.5 20.9606 20.5 20.1875C20.5 19.7315 20.3278 19.3153 20.0452 19C20.3278 18.6847 20.5 18.2685 20.5 17.8125C20.5 17.0394 20.0018 16.3863 19.3125 16.1405V14.8438H18.125ZM18.7188 20.7812H18.125V19.5938H18.7188C19.0465 19.5938 19.3125 19.8603 19.3125 20.1875C19.3125 20.5147 19.0465 20.7812 18.7188 20.7812ZM18.7188 18.4062H18.125V17.2188H18.7188C19.0465 17.2188 19.3125 17.4853 19.3125 17.8125C19.3125 18.1397 19.0465 18.4062 18.7188 18.4062ZM22.1037 23.1337L22.8566 24.0522C21.6934 25.0058 20.2239 25.5312 18.7188 25.5312C15.1177 25.5312 12.1875 22.6011 12.1875 19C12.1875 17.4942 12.713 16.0247 13.6665 14.8616L14.5851 15.615C13.8049 16.5662 13.375 17.7686 13.375 19C13.375 21.9462 15.772 24.3438 18.7188 24.3438C19.9502 24.3438 21.1525 23.9139 22.1037 23.1337ZM25.25 19C25.25 20.5058 24.7245 21.9753 23.771 23.1384L22.8524 22.385C23.6326 21.4338 24.0625 20.2314 24.0625 19C24.0625 16.0538 21.6655 13.6562 18.7188 13.6562C17.4873 13.6562 16.285 14.0861 15.3338 14.8663L14.5809 13.9478C15.7441 12.9942 17.2136 12.4688 18.7188 12.4688C22.3198 12.4688 25.25 15.3989 25.25 19ZM12.6037 32.6337L13.3566 33.5522C12.1934 34.5058 10.7239 35.0312 9.21875 35.0312C5.61766 35.0312 2.6875 32.1011 2.6875 28.5C2.6875 26.9942 3.21297 25.5247 4.16653 24.3616L5.08506 25.115C4.30488 26.0662 3.875 27.2686 3.875 28.5C3.875 31.4462 6.27197 33.8438 9.21875 33.8438C10.4502 33.8438 11.6525 33.4139 12.6037 32.6337ZM28.2188 0.59375C23.3078 0.59375 19.3125 4.58909 19.3125 9.5C19.3125 9.70128 19.3226 9.90969 19.3398 10.1252C19.1338 10.111 18.9283 10.0938 18.7188 10.0938C17.2267 10.0938 15.8218 10.4666 14.5857 11.118L13.2467 6.76756C13.6826 6.44278 13.9688 5.928 13.9688 5.34375C13.9688 4.36169 13.1696 3.5625 12.1875 3.5625C11.2054 3.5625 10.4062 4.36169 10.4062 5.34375C10.4062 6.30028 11.1651 7.07691 12.1115 7.11728L13.5424 11.7663C13.3073 11.935 13.0811 12.1149 12.8638 12.3049L7.69459 7.13569C7.90359 6.783 8.03125 6.37687 8.03125 5.9375C8.03125 4.62769 6.96606 3.5625 5.65625 3.5625C4.34644 3.5625 3.28125 4.62769 3.28125 5.9375C3.28125 7.24731 4.34644 8.3125 5.65625 8.3125C6.09562 8.3125 6.50175 8.18484 6.85503 7.97584L12.0242 13.145C11.8336 13.3623 11.6543 13.5886 11.4851 13.8237L6.83603 12.3933C6.79566 11.4469 6.01903 10.6875 5.0625 10.6875C4.08044 10.6875 3.28125 11.4867 3.28125 12.4688C3.28125 13.4508 4.08044 14.25 5.0625 14.25C5.64675 14.25 6.16153 13.9638 6.48631 13.528L10.8367 14.8663C10.1854 16.1031 9.8125 17.5079 9.8125 19C9.8125 19.2096 9.82972 19.415 9.84397 19.6217C9.62844 19.6038 9.42003 19.5938 9.21875 19.5938C4.30784 19.5938 0.3125 23.5891 0.3125 28.5C0.3125 33.4109 4.30784 37.4062 9.21875 37.4062C14.1297 37.4062 18.125 33.4109 18.125 28.5C18.125 28.2987 18.1149 28.0903 18.0977 27.8748C18.3037 27.889 18.5092 27.9062 18.7188 27.9062C20.2108 27.9062 21.6157 27.5334 22.8518 26.882L24.1902 31.2324C23.7549 31.5578 23.4688 32.072 23.4688 32.6562C23.4688 33.6383 24.2679 34.4375 25.25 34.4375C26.2321 34.4375 27.0312 33.6383 27.0312 32.6562C27.0312 31.6997 26.2718 30.9231 25.3254 30.8827L23.8951 26.2337C24.1302 26.065 24.3564 25.8851 24.5737 25.6945L29.7429 30.8637C29.5339 31.217 29.4062 31.6231 29.4062 32.0625C29.4062 33.3723 30.4714 34.4375 31.7812 34.4375C33.0911 34.4375 34.1562 33.3723 34.1562 32.0625C34.1562 30.7527 33.0911 29.6875 31.7812 29.6875C31.3419 29.6875 30.9357 29.8152 30.5825 30.0242L25.4133 24.855C25.6039 24.6377 25.7832 24.4114 25.9524 24.1763L30.6015 25.6067C30.6418 26.5531 31.4185 27.3125 32.375 27.3125C33.3571 27.3125 34.1562 26.5133 34.1562 25.5312C34.1562 24.5492 33.3571 23.75 32.375 23.75C31.7908 23.75 31.276 24.0362 30.9512 24.472L26.6008 23.1331C27.2521 21.8969 27.625 20.4921 27.625 19C27.625 18.7904 27.6078 18.585 27.5935 18.3783C27.8091 18.3962 28.0175 18.4062 28.2188 18.4062C33.1297 18.4062 37.125 14.4109 37.125 9.5C37.125 4.58909 33.1297 0.59375 28.2188 0.59375ZM11.5938 5.34375C11.5938 5.01659 11.8597 4.75 12.1875 4.75C12.5153 4.75 12.7812 5.01659 12.7812 5.34375C12.7812 5.67091 12.5153 5.9375 12.1875 5.9375C11.8597 5.9375 11.5938 5.67091 11.5938 5.34375ZM5.0625 13.0625C4.73475 13.0625 4.46875 12.7959 4.46875 12.4688C4.46875 12.1416 4.73475 11.875 5.0625 11.875C5.39025 11.875 5.65625 12.1416 5.65625 12.4688C5.65625 12.7959 5.39025 13.0625 5.0625 13.0625ZM25.8438 32.6562C25.8438 32.9834 25.5777 33.25 25.25 33.25C24.9223 33.25 24.6562 32.9834 24.6562 32.6562C24.6562 32.3291 24.9223 32.0625 25.25 32.0625C25.5777 32.0625 25.8438 32.3291 25.8438 32.6562ZM32.375 24.9375C32.7028 24.9375 32.9688 25.2041 32.9688 25.5312C32.9688 25.8584 32.7028 26.125 32.375 26.125C32.0473 26.125 31.7812 25.8584 31.7812 25.5312C31.7812 25.2041 32.0473 24.9375 32.375 24.9375ZM5.65625 7.125C5.00134 7.125 4.46875 6.59241 4.46875 5.9375C4.46875 5.28259 5.00134 4.75 5.65625 4.75C6.31116 4.75 6.84375 5.28259 6.84375 5.9375C6.84375 6.59241 6.31116 7.125 5.65625 7.125ZM16.9375 28.5C16.9375 32.756 13.4748 36.2188 9.21875 36.2188C4.96275 36.2188 1.5 32.756 1.5 28.5C1.5 24.244 4.96275 20.7812 9.21875 20.7812C9.46278 20.7812 9.72759 20.802 10.0043 20.8335C10.0957 21.2675 10.2263 21.6861 10.3783 22.0946C8.51753 21.7681 6.54806 22.246 5.0815 23.4478L5.83437 24.3663C7.2665 23.1919 9.28288 22.8517 11.0398 23.4893C11.814 24.8087 12.916 25.9101 14.2359 26.6831C14.4491 27.2703 14.5625 27.8795 14.5625 28.5C14.5625 29.7314 14.1326 30.9338 13.3524 31.885L14.271 32.6384C15.2245 31.4753 15.75 30.0058 15.75 28.5C15.75 28.1117 15.712 27.7269 15.6431 27.3475C16.0457 27.4966 16.4578 27.6248 16.8853 27.7145C16.9161 27.9912 16.9375 28.2554 16.9375 28.5ZM18.7188 26.7188C14.4627 26.7188 11 23.256 11 19C11 14.744 14.4627 11.2812 18.7188 11.2812C22.9748 11.2812 26.4375 14.744 26.4375 19C26.4375 23.256 22.9748 26.7188 18.7188 26.7188ZM31.7812 30.875C32.4362 30.875 32.9688 31.4076 32.9688 32.0625C32.9688 32.7174 32.4362 33.25 31.7812 33.25C31.1263 33.25 30.5938 32.7174 30.5938 32.0625C30.5938 31.4076 31.1263 30.875 31.7812 30.875ZM28.2188 17.2188C27.9747 17.2188 27.7099 17.198 27.4332 17.1665C27.3436 16.739 27.2153 16.3269 27.0663 15.9244C27.4457 15.9932 27.8304 16.0312 28.2188 16.0312C29.7239 16.0312 31.1934 15.5058 32.3566 14.5522L31.6037 13.6337C30.1716 14.8075 28.1552 15.1483 26.3983 14.5107C25.9518 13.7501 25.3973 13.0637 24.7536 12.4682H31.6904L32.5211 7.48303L29.8338 8.25075L28.2164 6.95756L26.6008 8.25016L23.9164 7.48244L24.7465 12.461C24.2751 12.0264 23.7585 11.6417 23.2022 11.3157C22.9884 10.7297 22.875 10.1205 22.875 9.5C22.875 8.26856 23.3049 7.06622 24.0851 6.11503L23.1665 5.36156C22.213 6.52472 21.6875 7.99425 21.6875 9.5C21.6875 9.88831 21.7255 10.2731 21.7944 10.6525C21.3918 10.5034 20.9798 10.3752 20.5522 10.2855C20.5214 10.0088 20.5 9.74463 20.5 9.5C20.5 5.244 23.9627 1.78125 28.2188 1.78125C32.4748 1.78125 35.9375 5.244 35.9375 9.5C35.9375 13.756 32.4748 17.2188 28.2188 17.2188ZM25.3961 9.14137L26.8644 9.56116L28.2164 8.47875L29.5701 9.56056L31.0414 9.14078L30.6846 11.2812H25.7523L25.3961 9.14137ZM34.75 9.5C34.75 11.0057 34.2245 12.4753 33.271 13.6384L32.3524 12.885C33.1326 11.9338 33.5625 10.7314 33.5625 9.5C33.5625 6.55381 31.1655 4.15625 28.2188 4.15625C26.9873 4.15625 25.785 4.58613 24.8338 5.36631L24.0809 4.44778C25.2441 3.49422 26.7136 2.96875 28.2188 2.96875C31.8198 2.96875 34.75 5.89891 34.75 9.5ZM9.21875 33.646L13.5234 27.9062L11.2969 24.9375H7.14062L4.91406 27.9062L9.21875 33.646ZM9.8125 28.5H11.5938L9.8125 30.875V28.5ZM10.4062 27.3125L11 26.521L11.5938 27.3125H10.4062ZM9.21875 26.9165L8.625 26.125H9.8125L9.21875 26.9165ZM8.03125 27.3125H6.84375L7.4375 26.521L8.03125 27.3125ZM8.625 28.5V30.875L6.84375 28.5H8.625Z" fill="url(#paint0_linear)"/>
<defs>
<linearGradient id="paint0_linear" x1="18.7188" y1="37.4062" x2="18.7188" y2="0.59375" gradientUnits="userSpaceOnUse">
<stop stop-color="#9F2FFF"/>
<stop offset="1" stop-color="#0BB1D3"/>
</linearGradient>
</defs>
</svg>
