<svg width="38" height="38" viewBox="0 0 38 38" fill="none" xmlns="http://www.w3.org/2000/svg">
<path d="M11.6914 10.203V8.90625H10.5039V10.0938H9.31641V16.0312H10.5039V17.2188H11.6914V15.922C12.3807 15.6762 12.8789 15.0231 12.8789 14.25C12.8789 13.794 12.7067 13.3778 12.4241 13.0625C12.7067 12.7472 12.8789 12.331 12.8789 11.875C12.8789 11.1019 12.3807 10.4488 11.6914 10.203ZM11.0977 14.8438H10.5039V13.6562H11.0977C11.4254 13.6562 11.6914 13.9222 11.6914 14.25C11.6914 14.5778 11.4254 14.8438 11.0977 14.8438ZM11.0977 12.4688H10.5039V11.2812H11.0977C11.4254 11.2812 11.6914 11.5472 11.6914 11.875C11.6914 12.2028 11.4254 12.4688 11.0977 12.4688ZM21.7852 10.6875V8.90625C21.7852 8.5785 22.0512 8.3125 22.3789 8.3125H23.0029C23.3063 11.9641 26.3689 14.8438 30.0977 14.8438C34.0265 14.8438 37.2227 11.6476 37.2227 7.71875C37.2227 3.78991 34.0265 0.59375 30.0977 0.59375C26.3689 0.59375 23.3063 3.47344 23.0029 7.125H22.3789C21.3968 7.125 20.5977 7.92419 20.5977 8.90625V10.6875C20.5977 11.0153 20.3317 11.2812 20.0039 11.2812H17.376C16.5982 8.54406 14.0813 6.53125 11.0977 6.53125C7.49656 6.53125 4.56641 9.46141 4.56641 13.0625C4.56641 15.5741 5.99319 17.7555 8.07725 18.848C3.65144 20.1548 0.410156 24.2505 0.410156 29.0938V31.4688H21.7852V29.0938C21.7852 24.2505 18.5439 20.1548 14.1181 18.848C15.6891 18.0245 16.882 16.5811 17.376 14.8438H20.0039C20.3317 14.8438 20.5977 15.1097 20.5977 15.4375V20.1875C20.5977 21.1696 21.3968 21.9688 22.3789 21.9688H28.9102C29.2379 21.9688 29.5039 22.2348 29.5039 22.5625V23.1865C25.8523 23.4899 22.9727 26.5525 22.9727 30.2812C22.9727 34.2101 26.1688 37.4062 30.0977 37.4062C34.0265 37.4062 37.2227 34.2101 37.2227 30.2812C37.2227 26.5525 34.343 23.4899 30.6914 23.1865V22.5625C30.6914 21.5804 29.8922 20.7812 28.9102 20.7812H22.3789C22.0512 20.7812 21.7852 20.5152 21.7852 20.1875V15.4375C21.7852 14.4554 20.986 13.6562 20.0039 13.6562H17.5986C17.6164 13.4603 17.6289 13.2632 17.6289 13.0625C17.6289 12.8618 17.6164 12.6647 17.5986 12.4688H20.0039C20.986 12.4688 21.7852 11.6696 21.7852 10.6875ZM26.0691 12.068C26.5203 10.219 28.1668 8.90625 30.0977 8.90625C32.0285 8.90625 33.675 10.219 34.1263 12.068C33.0664 13.05 31.6533 13.6562 30.0977 13.6562C28.542 13.6562 27.1289 13.05 26.0691 12.068ZM28.3164 5.9375C28.3164 4.95544 29.1156 4.15625 30.0977 4.15625C31.0797 4.15625 31.8789 4.95544 31.8789 5.9375C31.8789 6.91956 31.0797 7.71875 30.0977 7.71875C29.1156 7.71875 28.3164 6.91956 28.3164 5.9375ZM30.0977 1.78125C33.3716 1.78125 36.0352 4.44481 36.0352 7.71875C36.0352 8.94009 35.6635 10.0759 35.0288 11.0212C34.4807 9.68584 33.4209 8.64322 32.1045 8.11122C32.6917 7.56853 33.0664 6.79844 33.0664 5.9375C33.0664 4.30053 31.7346 2.96875 30.0977 2.96875C28.4607 2.96875 27.1289 4.30053 27.1289 5.9375C27.1289 6.79844 27.5036 7.56853 28.0908 8.11122C26.7738 8.64322 25.7146 9.68525 25.1666 11.0212C24.5318 10.0759 24.1602 8.94009 24.1602 7.71875C24.1602 4.44481 26.8237 1.78125 30.0977 1.78125ZM26.0691 34.6305C26.5203 32.7815 28.1668 31.4688 30.0977 31.4688C32.0285 31.4688 33.675 32.7815 34.1263 34.6305C33.0664 35.6125 31.6533 36.2188 30.0977 36.2188C28.542 36.2188 27.1289 35.6125 26.0691 34.6305ZM28.3164 28.5C28.3164 27.5179 29.1156 26.7188 30.0977 26.7188C31.0797 26.7188 31.8789 27.5179 31.8789 28.5C31.8789 29.4821 31.0797 30.2812 30.0977 30.2812C29.1156 30.2812 28.3164 29.4821 28.3164 28.5ZM36.0352 30.2812C36.0352 31.5026 35.6635 32.6384 35.0288 33.5837C34.4807 32.2483 33.4209 31.2057 32.1045 30.6737C32.6917 30.131 33.0664 29.3609 33.0664 28.5C33.0664 26.863 31.7346 25.5312 30.0977 25.5312C28.4607 25.5312 27.1289 26.863 27.1289 28.5C27.1289 29.3609 27.5036 30.131 28.0908 30.6737C26.7738 31.2057 25.7146 32.2477 25.1666 33.5837C24.5318 32.6384 24.1602 31.5026 24.1602 30.2812C24.1602 27.0073 26.8237 24.3438 30.0977 24.3438C33.3716 24.3438 36.0352 27.0073 36.0352 30.2812ZM11.3589 19.6068L11.9847 25.2391C11.7062 25.6458 11.4129 26.0425 11.0988 26.4243C10.7865 26.0425 10.4873 25.6512 10.2094 25.2445L10.8358 19.6062C10.9237 19.6044 11.0092 19.5938 11.0977 19.5938C11.1861 19.5938 11.2716 19.6044 11.3589 19.6068ZM12.9953 23.5742L12.5672 19.719C13.1829 19.8152 13.7778 19.9696 14.3484 20.1786C14.0136 21.3643 13.5629 22.5013 12.9953 23.5742ZM7.84391 20.1798C8.41569 19.9702 9.01181 19.8152 9.62872 19.719L9.20003 23.5766C8.62766 22.4978 8.17581 21.3566 7.84391 20.1798ZM1.59766 29.0938C1.59766 25.4244 3.69241 22.2413 6.74487 20.6589C7.45738 23.0957 8.67456 25.3757 10.3038 27.3238C9.92619 27.7234 9.53609 28.1123 9.11809 28.478L8.72266 28.8242V30.2812H5.16016V26.9646C5.16016 26.2645 4.88762 25.6067 4.39244 25.1115L3.55288 25.951C3.82363 26.2218 3.97266 26.5822 3.97266 26.9646V30.2812H1.59766V29.0938ZM20.5977 29.0938V30.2812H18.2227V26.9646C18.2227 26.5816 18.3717 26.2218 18.6424 25.951L17.8029 25.1115C17.3077 25.6067 17.0352 26.2645 17.0352 26.9646V30.2812H9.91016V29.3633C12.5672 27.0352 14.4618 24.0338 15.4451 20.6566C18.5005 22.2377 20.5977 25.4226 20.5977 29.0938ZM11.0977 18.4062C8.15088 18.4062 5.75391 16.0093 5.75391 13.0625C5.75391 10.1157 8.15088 7.71875 11.0977 7.71875C14.0444 7.71875 16.4414 10.1157 16.4414 13.0625C16.4414 16.0093 14.0444 18.4062 11.0977 18.4062Z" fill="url(#paint0_linear)"/>
<defs>
<linearGradient id="paint0_linear" x1="18.8164" y1="37.4062" x2="18.8164" y2="0.59375" gradientUnits="userSpaceOnUse">
<stop stop-color="#9F2FFF"/>
<stop offset="1" stop-color="#0BB1D3"/>
</linearGradient>
</defs>
</svg>
