<svg width="37" height="37" viewBox="0 0 37 37" fill="none" xmlns="http://www.w3.org/2000/svg">
<path d="M27.4394 21.375C23.9106 21.375 21.0393 24.3052 21.0393 27.9062C21.0393 31.5073 23.9106 34.4375 27.4394 34.4375C30.9681 34.4375 33.8394 31.5073 33.8394 27.9062C33.8394 24.3052 30.9681 21.375 27.4394 21.375ZM27.4394 33.25C24.5518 33.25 22.203 30.8524 22.203 27.9062C22.203 24.9601 24.5518 22.5625 27.4394 22.5625C30.327 22.5625 32.6758 24.9601 32.6758 27.9062C32.6758 30.8524 30.327 33.25 27.4394 33.25ZM28.0212 25.0467V23.75H26.8576V24.9375H25.6939V30.875H26.8576V32.0625H28.0212V30.7658C28.6967 30.5199 29.1849 29.8668 29.1849 29.0938C29.1849 28.6378 29.0161 28.2215 28.7392 27.9062C29.0161 27.591 29.1849 27.1747 29.1849 26.7188C29.1849 25.9457 28.6967 25.2926 28.0212 25.0467ZM27.4394 29.6875H26.8576V28.5H27.4394C27.7606 28.5 28.0212 28.7666 28.0212 29.0938C28.0212 29.4209 27.7606 29.6875 27.4394 29.6875ZM27.4394 27.3125H26.8576V26.125H27.4394C27.7606 26.125 28.0212 26.3916 28.0212 26.7188C28.0212 27.0459 27.7606 27.3125 27.4394 27.3125ZM34.4212 0H1.83922C0.876882 0 0.09375 0.799187 0.09375 1.78125V26.7188C0.09375 27.7008 0.876882 28.5 1.83922 28.5H18.7365C18.7411 28.5772 18.7417 28.6538 18.7481 28.731C19.1362 33.1253 22.6923 36.5952 27.0199 36.8024C27.1619 36.8095 27.3032 36.8125 27.444 36.8125C29.7003 36.8125 31.8234 35.9468 33.4642 34.3502C35.2067 32.6527 36.1667 30.3644 36.1667 27.9062V1.78125C36.1667 0.799187 35.3836 0 34.4212 0ZM1.83922 1.1875H34.4212C34.7424 1.1875 35.0031 1.45409 35.0031 1.78125V4.75H1.25739V1.78125C1.25739 1.45409 1.51805 1.1875 1.83922 1.1875ZM32.6607 33.4911C31.1502 34.9618 29.1662 35.72 27.0746 35.6161C23.3253 35.4368 20.244 32.4306 19.9077 28.6241C19.6191 25.3537 21.3029 22.3333 24.1981 20.9297L24.5303 20.7688V17.8125H3.58468V16.625H6.15284L9.64378 13.0625H13.1347L16.6256 9.5H18.4712L20.2166 11.2812H24.6653L26.9925 20.1875H27.4394C31.6099 20.1875 35.0031 23.6502 35.0031 27.9062C35.0031 30.0366 34.1711 32.0197 32.6607 33.4911ZM27.8891 19.0119L25.5595 10.0938H20.699L18.9535 8.3125H16.1445L12.6535 11.875H9.16261L5.67168 15.4375H3.58468V11.875H5.91197V10.6875H3.58468V9.5H7.07561V8.3125H3.58468V7.125H2.42104V19H23.3666V20.0272C20.6873 21.4736 18.9471 24.2594 18.7371 27.3125H1.83922C1.51805 27.3125 1.25739 27.0459 1.25739 26.7188V5.9375H35.0031V23.4852C33.566 20.935 30.935 19.1704 27.8891 19.0119ZM5.91197 3.5625H4.74833V2.375H5.91197V3.5625ZM8.23926 3.5625H7.07561V2.375H8.23926V3.5625ZM3.58468 3.5625H2.42104V2.375H3.58468V3.5625ZM2.42104 26.125H9.4029V20.1875H2.42104V26.125ZM3.58468 21.375H8.23926V24.9375H3.58468V21.375ZM17.5484 20.1875H10.5665V26.125H17.5484V20.1875ZM16.3848 24.9375H11.7302V21.375H16.3848V24.9375ZM27.4394 7.125H28.603V8.3125H27.4394V7.125ZM33.8394 7.125V8.3125H29.7667V7.125H33.8394ZM27.4394 9.5H28.603V10.6875H27.4394V9.5ZM29.7667 9.5H33.8394V10.6875H29.7667V9.5ZM27.4394 11.875H28.603V13.0625H27.4394V11.875ZM29.7667 11.875H33.8394V13.0625H29.7667V11.875Z" fill="url(#paint0_linear)"/>
<defs>
<linearGradient id="paint0_linear" x1="18.1302" y1="36.8131" x2="18.1302" y2="0" gradientUnits="userSpaceOnUse">
<stop stop-color="#9F2FFF"/>
<stop offset="1" stop-color="#0BB1D3"/>
</linearGradient>
</defs>
</svg>
