<svg width="38" height="37" viewBox="0 0 38 37" fill="none" xmlns="http://www.w3.org/2000/svg">
<path d="M17.6856 16.625V17.2188C17.6856 17.5459 17.9549 17.8125 18.2854 17.8125H19.4849C20.4769 17.8125 21.2841 18.6117 21.2841 19.5938V21.375H19.4849V22.5625H18.2854V21.375C17.2934 21.375 16.4861 20.5758 16.4861 19.5938H17.6856C17.6856 19.9215 17.9549 20.1875 18.2854 20.1875H20.0846V19.5938C20.0846 19.266 19.8153 19 19.4849 19H18.2854C17.2934 19 16.4861 18.2008 16.4861 17.2188V15.4375H18.2854V14.25H19.4849V15.4375C20.4769 15.4375 21.2841 16.2367 21.2841 17.2188H20.0846C20.0846 16.8916 19.8153 16.625 19.4849 16.625H17.6856ZM8.26541 26.299L3.89145 30.6292L3.11598 29.8615L2.26794 30.701L3.89145 32.3083L9.11345 27.1385L8.26541 26.299ZM34.6543 26.299L30.2803 30.6292L29.5049 29.8615L28.6568 30.701L30.2803 32.3083L35.5023 27.1385L34.6543 26.299ZM3.89145 10.9333L9.11345 5.76353L8.26541 4.92397L3.89145 9.25419L3.11598 8.48647L2.26794 9.32603L3.89145 10.9333ZM37.4773 1.78125V13.6562C37.4773 14.6383 36.67 15.4375 35.6781 15.4375H32.6793V16.0312C32.6793 17.0133 31.8721 17.8125 30.8801 17.8125H25.4518C25.4698 18.0084 25.4824 18.2056 25.4824 18.4062C25.4824 18.6069 25.4698 18.8041 25.4518 19H30.8801C31.8721 19 32.6793 19.7992 32.6793 20.7812V21.375H35.6781C36.67 21.375 37.4773 22.1742 37.4773 23.1562V35.0312C37.4773 36.0133 36.67 36.8125 35.6781 36.8125H28.4811C27.4891 36.8125 26.6819 36.0133 26.6819 35.0312V23.1562C26.6819 22.1742 27.4891 21.375 28.4811 21.375H31.4798V20.7812C31.4798 20.4535 31.2105 20.1875 30.8801 20.1875H25.2269C24.6037 22.3577 22.8765 24.0677 20.6844 24.6846V27.9062C20.6844 28.234 20.9537 28.5 21.2841 28.5H21.9942C22.2425 27.8107 22.9022 27.3125 23.6831 27.3125C24.6751 27.3125 25.4824 28.1117 25.4824 29.0938C25.4824 30.0758 24.6751 30.875 23.6831 30.875C22.9022 30.875 22.2425 30.3768 21.9942 29.6875H21.2841C20.2921 29.6875 19.4849 28.8883 19.4849 27.9062V24.9072C19.287 24.925 19.0879 24.9375 18.8851 24.9375C18.6824 24.9375 18.4833 24.925 18.2854 24.9072V27.9062C18.2854 28.8883 17.4781 29.6875 16.4861 29.6875H15.776C15.5278 30.3768 14.868 30.875 14.0872 30.875C13.0952 30.875 12.2879 30.0758 12.2879 29.0938C12.2879 28.1117 13.0952 27.3125 14.0872 27.3125C14.868 27.3125 15.5278 27.8107 15.776 28.5H16.4861C16.8166 28.5 17.0859 28.234 17.0859 27.9062V24.6846C14.8938 24.0677 13.1665 22.3577 12.5434 20.1875H6.89019C6.55973 20.1875 6.29044 20.4535 6.29044 20.7812V21.375H9.28918C10.2812 21.375 11.0884 22.1742 11.0884 23.1562V35.0312C11.0884 36.0133 10.2812 36.8125 9.28918 36.8125H2.09221C1.10023 36.8125 0.292969 36.0133 0.292969 35.0312V23.1562C0.292969 22.1742 1.10023 21.375 2.09221 21.375H5.09095V20.7812C5.09095 19.7992 5.89821 19 6.89019 19H12.3185C12.3005 18.8041 12.2879 18.6069 12.2879 18.4062C12.2879 18.2056 12.3005 18.0084 12.3185 17.8125H6.89019C5.89821 17.8125 5.09095 17.0133 5.09095 16.0312V15.4375H2.09221C1.10023 15.4375 0.292969 14.6383 0.292969 13.6562V1.78125C0.292969 0.799187 1.10023 0 2.09221 0H9.28918C10.2812 0 11.0884 0.799187 11.0884 1.78125V13.6562C11.0884 14.6383 10.2812 15.4375 9.28918 15.4375H6.29044V16.0312C6.29044 16.3584 6.55973 16.625 6.89019 16.625H12.5434C13.1665 14.4548 14.8938 12.7448 17.0859 12.1279V8.90625C17.0859 8.57909 16.8166 8.3125 16.4861 8.3125H15.776C15.5278 9.00184 14.868 9.5 14.0872 9.5C13.0952 9.5 12.2879 8.70081 12.2879 7.71875C12.2879 6.73669 13.0952 5.9375 14.0872 5.9375C14.868 5.9375 15.5278 6.43566 15.776 7.125H16.4861C17.4781 7.125 18.2854 7.92419 18.2854 8.90625V11.9053C18.4833 11.8875 18.6824 11.875 18.8851 11.875C19.0879 11.875 19.287 11.8875 19.4849 11.9053V8.90625C19.4849 7.92419 20.2921 7.125 21.2841 7.125H21.9942C22.2425 6.43566 22.9022 5.9375 23.6831 5.9375C24.6751 5.9375 25.4824 6.73669 25.4824 7.71875C25.4824 8.70081 24.6751 9.5 23.6831 9.5C22.9022 9.5 22.2425 9.00184 21.9942 8.3125H21.2841C20.9537 8.3125 20.6844 8.57909 20.6844 8.90625V12.1279C22.8765 12.7448 24.6037 14.4548 25.2269 16.625H30.8801C31.2105 16.625 31.4798 16.3584 31.4798 16.0312V15.4375H28.4811C27.4891 15.4375 26.6819 14.6383 26.6819 13.6562V1.78125C26.6819 0.799187 27.4891 0 28.4811 0H35.6781C36.67 0 37.4773 0.799187 37.4773 1.78125ZM23.0834 7.71875C23.0834 8.04591 23.3527 8.3125 23.6831 8.3125C24.0136 8.3125 24.2829 8.04591 24.2829 7.71875C24.2829 7.39159 24.0136 7.125 23.6831 7.125C23.3527 7.125 23.0834 7.39159 23.0834 7.71875ZM14.6869 7.71875C14.6869 7.39159 14.4176 7.125 14.0872 7.125C13.7567 7.125 13.4874 7.39159 13.4874 7.71875C13.4874 8.04591 13.7567 8.3125 14.0872 8.3125C14.4176 8.3125 14.6869 8.04591 14.6869 7.71875ZM9.88893 3.5625H1.49246V11.875H9.88893V3.5625ZM1.49246 1.78125V2.375H9.88893V1.78125C9.88893 1.45409 9.61964 1.1875 9.28918 1.1875H2.09221C1.76175 1.1875 1.49246 1.45409 1.49246 1.78125ZM2.09221 14.25H9.28918C9.61964 14.25 9.88893 13.9834 9.88893 13.6562V13.0625H1.49246V13.6562C1.49246 13.9834 1.76175 14.25 2.09221 14.25ZM1.49246 33.25H9.88893V24.9375H1.49246V33.25ZM9.88893 35.0312V34.4375H1.49246V35.0312C1.49246 35.359 1.76175 35.625 2.09221 35.625H9.28918C9.61964 35.625 9.88893 35.359 9.88893 35.0312ZM9.28918 22.5625H2.09221C1.76175 22.5625 1.49246 22.8285 1.49246 23.1562V23.75H9.88893V23.1562C9.88893 22.8285 9.61964 22.5625 9.28918 22.5625ZM14.6869 29.0938C14.6869 28.766 14.4176 28.5 14.0872 28.5C13.7567 28.5 13.4874 28.766 13.4874 29.0938C13.4874 29.4215 13.7567 29.6875 14.0872 29.6875C14.4176 29.6875 14.6869 29.4215 14.6869 29.0938ZM23.0834 29.0938C23.0834 29.4215 23.3527 29.6875 23.6831 29.6875C24.0136 29.6875 24.2829 29.4215 24.2829 29.0938C24.2829 28.766 24.0136 28.5 23.6831 28.5C23.3527 28.5 23.0834 28.766 23.0834 29.0938ZM27.8813 33.25H36.2778V24.9375H27.8813V33.25ZM36.2778 35.0312V34.4375H27.8813V35.0312C27.8813 35.359 28.1506 35.625 28.4811 35.625H35.6781C36.0085 35.625 36.2778 35.359 36.2778 35.0312ZM35.6781 22.5625H28.4811C28.1506 22.5625 27.8813 22.8285 27.8813 23.1562V23.75H36.2778V23.1562C36.2778 22.8285 36.0085 22.5625 35.6781 22.5625ZM24.2829 18.4062C24.2829 15.4601 21.8611 13.0625 18.8851 13.0625C15.9092 13.0625 13.4874 15.4601 13.4874 18.4062C13.4874 21.353 15.9092 23.75 18.8851 23.75C21.8611 23.75 24.2829 21.353 24.2829 18.4062ZM27.8813 1.78125V2.375H36.2778V1.78125C36.2778 1.45409 36.0085 1.1875 35.6781 1.1875H28.4811C28.1506 1.1875 27.8813 1.45409 27.8813 1.78125ZM27.8813 3.5625V11.875H36.2778V3.5625H27.8813ZM36.2778 13.6562V13.0625H27.8813V13.6562C27.8813 13.9834 28.1506 14.25 28.4811 14.25H35.6781C36.0085 14.25 36.2778 13.9834 36.2778 13.6562ZM30.2803 10.9333L35.5023 5.76353L34.6543 4.92397L30.2803 9.25419L29.5049 8.48647L28.6568 9.32603L30.2803 10.9333Z" fill="url(#paint0_linear)"/>
<defs>
<linearGradient id="paint0_linear" x1="18.8851" y1="36.8125" x2="18.8851" y2="0" gradientUnits="userSpaceOnUse">
<stop stop-color="#9F2FFF"/>
<stop offset="1" stop-color="#0BB1D3"/>
</linearGradient>
</defs>
</svg>
