<svg width="60" height="60" viewBox="0 0 60 60" fill="none" xmlns="http://www.w3.org/2000/svg">
<path d="M30 60C46.5685 60 60 46.5685 60 30C60 13.4315 46.5685 0 30 0C13.4315 0 0 13.4315 0 30C0 46.5685 13.4315 60 30 60Z" fill="#210849"/>
<path d="M29.4062 26.8438V28.0312H28.2188V33.9688H29.4062V35.1562H30.5938V33.8595C31.2831 33.6137 31.7812 32.9606 31.7812 32.1875C31.7812 31.7315 31.6091 31.3153 31.3264 31C31.6091 30.6847 31.7812 30.2685 31.7812 29.8125C31.7812 29.0394 31.2831 28.3863 30.5938 28.1405V26.8438H29.4062ZM30 32.7812H29.4062V31.5938H30C30.3277 31.5938 30.5938 31.8603 30.5938 32.1875C30.5938 32.5147 30.3277 32.7812 30 32.7812ZM30 30.4062H29.4062V29.2188H30C30.3277 29.2188 30.5938 29.4853 30.5938 29.8125C30.5938 30.1397 30.3277 30.4062 30 30.4062ZM33.385 35.1337L34.1378 36.0522C32.9747 37.0058 31.5052 37.5312 30 37.5312C26.3989 37.5312 23.4688 34.6011 23.4688 31C23.4688 29.4942 23.9942 28.0247 24.9478 26.8616L25.8663 27.615C25.0861 28.5662 24.6562 29.7686 24.6562 31C24.6562 33.9462 27.0532 36.3438 30 36.3438C31.2314 36.3438 32.4338 35.9139 33.385 35.1337ZM36.5312 31C36.5312 32.5058 36.0058 33.9753 35.0522 35.1384L34.1337 34.385C34.9139 33.4338 35.3438 32.2314 35.3438 31C35.3438 28.0538 32.9468 25.6562 30 25.6562C28.7686 25.6562 27.5662 26.0861 26.615 26.8663L25.8622 25.9478C27.0253 24.9942 28.4948 24.4688 30 24.4688C33.6011 24.4688 36.5312 27.3989 36.5312 31ZM23.885 44.6337L24.6378 45.5522C23.4747 46.5058 22.0052 47.0312 20.5 47.0312C16.8989 47.0312 13.9688 44.1011 13.9688 40.5C13.9688 38.9942 14.4942 37.5247 15.4478 36.3616L16.3663 37.115C15.5861 38.0662 15.1562 39.2686 15.1562 40.5C15.1562 43.4462 17.5532 45.8438 20.5 45.8438C21.7314 45.8438 22.9338 45.4139 23.885 44.6337ZM39.5 12.5938C34.5891 12.5938 30.5938 16.5891 30.5938 21.5C30.5938 21.7013 30.6038 21.9097 30.6211 22.1252C30.415 22.111 30.2096 22.0938 30 22.0938C28.5079 22.0938 27.1031 22.4666 25.8669 23.118L24.528 18.7676C24.9638 18.4428 25.25 17.928 25.25 17.3438C25.25 16.3617 24.4508 15.5625 23.4688 15.5625C22.4867 15.5625 21.6875 16.3617 21.6875 17.3438C21.6875 18.3003 22.4463 19.0769 23.3927 19.1173L24.8237 23.7663C24.5886 23.935 24.3623 24.1149 24.145 24.3049L18.9758 19.1357C19.1848 18.783 19.3125 18.3769 19.3125 17.9375C19.3125 16.6277 18.2473 15.5625 16.9375 15.5625C15.6277 15.5625 14.5625 16.6277 14.5625 17.9375C14.5625 19.2473 15.6277 20.3125 16.9375 20.3125C17.3769 20.3125 17.783 20.1848 18.1363 19.9758L23.3055 25.145C23.1149 25.3623 22.9356 25.5886 22.7663 25.8237L18.1173 24.3933C18.0769 23.4469 17.3003 22.6875 16.3438 22.6875C15.3617 22.6875 14.5625 23.4867 14.5625 24.4688C14.5625 25.4508 15.3617 26.25 16.3438 26.25C16.928 26.25 17.4428 25.9638 17.7676 25.528L22.118 26.8663C21.4666 28.1031 21.0938 29.5079 21.0938 31C21.0938 31.2096 21.111 31.415 21.1252 31.6217C20.9097 31.6038 20.7013 31.5938 20.5 31.5938C15.5891 31.5938 11.5938 35.5891 11.5938 40.5C11.5938 45.4109 15.5891 49.4062 20.5 49.4062C25.4109 49.4062 29.4062 45.4109 29.4062 40.5C29.4062 40.2987 29.3962 40.0903 29.3789 39.8748C29.585 39.889 29.7904 39.9062 30 39.9062C31.4921 39.9062 32.8969 39.5334 34.1331 38.882L35.4714 43.2324C35.0362 43.5578 34.75 44.072 34.75 44.6562C34.75 45.6383 35.5492 46.4375 36.5312 46.4375C37.5133 46.4375 38.3125 45.6383 38.3125 44.6562C38.3125 43.6997 37.5531 42.9231 36.6067 42.8827L35.1763 38.2337C35.4114 38.065 35.6377 37.8851 35.855 37.6945L41.0242 42.8637C40.8152 43.217 40.6875 43.6231 40.6875 44.0625C40.6875 45.3723 41.7527 46.4375 43.0625 46.4375C44.3723 46.4375 45.4375 45.3723 45.4375 44.0625C45.4375 42.7527 44.3723 41.6875 43.0625 41.6875C42.6231 41.6875 42.217 41.8152 41.8637 42.0242L36.6945 36.855C36.8851 36.6377 37.0644 36.4114 37.2337 36.1763L41.8827 37.6067C41.9231 38.5531 42.6997 39.3125 43.6562 39.3125C44.6383 39.3125 45.4375 38.5133 45.4375 37.5312C45.4375 36.5492 44.6383 35.75 43.6562 35.75C43.072 35.75 42.5572 36.0362 42.2324 36.472L37.882 35.1331C38.5334 33.8969 38.9062 32.4921 38.9062 31C38.9062 30.7904 38.889 30.585 38.8748 30.3783C39.0903 30.3962 39.2987 30.4062 39.5 30.4062C44.4109 30.4062 48.4062 26.4109 48.4062 21.5C48.4062 16.5891 44.4109 12.5938 39.5 12.5938ZM22.875 17.3438C22.875 17.0166 23.141 16.75 23.4688 16.75C23.7965 16.75 24.0625 17.0166 24.0625 17.3438C24.0625 17.6709 23.7965 17.9375 23.4688 17.9375C23.141 17.9375 22.875 17.6709 22.875 17.3438ZM16.3438 25.0625C16.016 25.0625 15.75 24.7959 15.75 24.4688C15.75 24.1416 16.016 23.875 16.3438 23.875C16.6715 23.875 16.9375 24.1416 16.9375 24.4688C16.9375 24.7959 16.6715 25.0625 16.3438 25.0625ZM37.125 44.6562C37.125 44.9834 36.859 45.25 36.5312 45.25C36.2035 45.25 35.9375 44.9834 35.9375 44.6562C35.9375 44.3291 36.2035 44.0625 36.5312 44.0625C36.859 44.0625 37.125 44.3291 37.125 44.6562ZM43.6562 36.9375C43.984 36.9375 44.25 37.2041 44.25 37.5312C44.25 37.8584 43.984 38.125 43.6562 38.125C43.3285 38.125 43.0625 37.8584 43.0625 37.5312C43.0625 37.2041 43.3285 36.9375 43.6562 36.9375ZM16.9375 19.125C16.2826 19.125 15.75 18.5924 15.75 17.9375C15.75 17.2826 16.2826 16.75 16.9375 16.75C17.5924 16.75 18.125 17.2826 18.125 17.9375C18.125 18.5924 17.5924 19.125 16.9375 19.125ZM28.2188 40.5C28.2188 44.756 24.756 48.2188 20.5 48.2188C16.244 48.2188 12.7812 44.756 12.7812 40.5C12.7812 36.244 16.244 32.7812 20.5 32.7812C20.744 32.7812 21.0088 32.802 21.2855 32.8335C21.377 33.2675 21.5076 33.6861 21.6596 34.0946C19.7988 33.7681 17.8293 34.246 16.3627 35.4478L17.1156 36.3663C18.5477 35.1919 20.5641 34.8517 22.321 35.4893C23.0953 36.8087 24.1973 37.9101 25.5172 38.6831C25.7303 39.2703 25.8438 39.8795 25.8438 40.5C25.8438 41.7314 25.4139 42.9338 24.6337 43.885L25.5522 44.6384C26.5058 43.4753 27.0312 42.0058 27.0312 40.5C27.0312 40.1117 26.9932 39.7269 26.9244 39.3475C27.3269 39.4966 27.739 39.6248 28.1665 39.7145C28.1974 39.9912 28.2188 40.2554 28.2188 40.5ZM30 38.7188C25.744 38.7188 22.2812 35.256 22.2812 31C22.2812 26.744 25.744 23.2812 30 23.2812C34.256 23.2812 37.7188 26.744 37.7188 31C37.7188 35.256 34.256 38.7188 30 38.7188ZM43.0625 42.875C43.7174 42.875 44.25 43.4076 44.25 44.0625C44.25 44.7174 43.7174 45.25 43.0625 45.25C42.4076 45.25 41.875 44.7174 41.875 44.0625C41.875 43.4076 42.4076 42.875 43.0625 42.875ZM39.5 29.2188C39.256 29.2188 38.9912 29.198 38.7145 29.1665C38.6248 28.739 38.4966 28.3269 38.3475 27.9244C38.7269 27.9932 39.1117 28.0312 39.5 28.0312C41.0052 28.0312 42.4747 27.5058 43.6378 26.5522L42.885 25.6337C41.4528 26.8075 39.4365 27.1483 37.6796 26.5107C37.2331 25.7501 36.6785 25.0637 36.0349 24.4682H42.9717L43.8023 19.483L41.115 20.2508L39.4976 18.9576L37.882 20.2502L35.1977 19.4824L36.0278 24.461C35.5563 24.0264 35.0397 23.6417 34.4834 23.3157C34.2697 22.7297 34.1562 22.1205 34.1562 21.5C34.1562 20.2686 34.5861 19.0662 35.3663 18.115L34.4478 17.3616C33.4942 18.5247 32.9688 19.9942 32.9688 21.5C32.9688 21.8883 33.0068 22.2731 33.0756 22.6525C32.6731 22.5034 32.261 22.3752 31.8335 22.2855C31.8026 22.0088 31.7812 21.7446 31.7812 21.5C31.7812 17.244 35.244 13.7812 39.5 13.7812C43.756 13.7812 47.2188 17.244 47.2188 21.5C47.2188 25.756 43.756 29.2188 39.5 29.2188ZM36.6773 21.1414L38.1457 21.5612L39.4976 20.4787L40.8514 21.5606L42.3227 21.1408L41.9658 23.2812H37.0336L36.6773 21.1414ZM46.0312 21.5C46.0312 23.0057 45.5058 24.4753 44.5522 25.6384L43.6337 24.885C44.4139 23.9338 44.8438 22.7314 44.8438 21.5C44.8438 18.5538 42.4468 16.1562 39.5 16.1562C38.2686 16.1562 37.0662 16.5861 36.115 17.3663L35.3622 16.4478C36.5253 15.4942 37.9948 14.9688 39.5 14.9688C43.1011 14.9688 46.0312 17.8989 46.0312 21.5ZM20.5 45.646L24.8047 39.9062L22.5781 36.9375H18.4219L16.1953 39.9062L20.5 45.646ZM21.0938 40.5H22.875L21.0938 42.875V40.5ZM21.6875 39.3125L22.2812 38.521L22.875 39.3125H21.6875ZM20.5 38.9165L19.9062 38.125H21.0938L20.5 38.9165ZM19.3125 39.3125H18.125L18.7188 38.521L19.3125 39.3125ZM19.9062 40.5V42.875L18.125 40.5H19.9062Z" fill="url(#paint0_linear)"/>
<defs>
<linearGradient id="paint0_linear" x1="30" y1="49.4062" x2="30" y2="12.5938" gradientUnits="userSpaceOnUse">
<stop stop-color="#9F2FFF"/>
<stop offset="1" stop-color="#0BB1D3"/>
</linearGradient>
</defs>
</svg>
