<svg width="60" height="60" viewBox="0 0 60 60" fill="none" xmlns="http://www.w3.org/2000/svg">
<path d="M30 60C46.5685 60 60 46.5685 60 30C60 13.4315 46.5685 0 30 0C13.4315 0 0 13.4315 0 30C0 46.5685 13.4315 60 30 60Z" fill="#210849"/>
<path d="M39.9062 33.375C36.3052 33.375 33.375 36.3052 33.375 39.9062C33.375 43.5073 36.3052 46.4375 39.9062 46.4375C43.5073 46.4375 46.4375 43.5073 46.4375 39.9062C46.4375 36.3052 43.5073 33.375 39.9062 33.375ZM39.9062 45.25C36.9595 45.25 34.5625 42.8524 34.5625 39.9062C34.5625 36.9601 36.9595 34.5625 39.9062 34.5625C42.853 34.5625 45.25 36.9601 45.25 39.9062C45.25 42.8524 42.853 45.25 39.9062 45.25ZM40.5 37.0467V35.75H39.3125V36.9375H38.125V42.875H39.3125V44.0625H40.5V42.7658C41.1893 42.5199 41.6875 41.8668 41.6875 41.0938C41.6875 40.6378 41.5153 40.2215 41.2327 39.9062C41.5153 39.591 41.6875 39.1747 41.6875 38.7188C41.6875 37.9457 41.1893 37.2926 40.5 37.0467ZM39.9062 41.6875H39.3125V40.5H39.9062C40.234 40.5 40.5 40.7666 40.5 41.0938C40.5 41.4209 40.234 41.6875 39.9062 41.6875ZM39.9062 39.3125H39.3125V38.125H39.9062C40.234 38.125 40.5 38.3916 40.5 38.7188C40.5 39.0459 40.234 39.3125 39.9062 39.3125ZM47.0312 12H13.7812C12.7992 12 12 12.7992 12 13.7812V38.7188C12 39.7008 12.7992 40.5 13.7812 40.5H31.0249C31.0297 40.5772 31.0303 40.6538 31.0368 40.731C31.4328 45.1253 35.0618 48.5952 39.4782 48.8024C39.623 48.8095 39.7673 48.8125 39.911 48.8125C42.2136 48.8125 44.3802 47.9468 46.0545 46.3502C47.8328 44.6527 48.8125 42.3644 48.8125 39.9062V13.7812C48.8125 12.7992 48.0133 12 47.0312 12ZM13.7812 13.1875H47.0312C47.359 13.1875 47.625 13.4541 47.625 13.7812V16.75H13.1875V13.7812C13.1875 13.4541 13.4535 13.1875 13.7812 13.1875ZM45.2346 45.4911C43.6932 46.9618 41.6685 47.72 39.534 47.6161C35.7078 47.4368 32.5633 44.4306 32.2202 40.6241C31.9257 37.3537 33.644 34.3333 36.5985 32.9297L36.9375 32.7688V29.8125H15.5625V28.625H18.1833L21.7458 25.0625H25.3083L28.8708 21.5H30.7542L32.5354 23.2812H37.0752L39.4502 32.1875H39.9062C44.1623 32.1875 47.625 35.6502 47.625 39.9062C47.625 42.0366 46.7759 44.0197 45.2346 45.4911ZM40.3652 31.0119L37.9878 22.0938H33.0277L31.2464 20.3125H28.3798L24.8173 23.875H21.2548L17.6923 27.4375H15.5625V23.875H17.9375V22.6875H15.5625V21.5H19.125V20.3125H15.5625V19.125H14.375V31H35.75V32.0272C33.0158 33.4736 31.2399 36.2594 31.0255 39.3125H13.7812C13.4535 39.3125 13.1875 39.0459 13.1875 38.7188V17.9375H47.625V35.4852C46.1584 32.935 43.4735 31.1704 40.3652 31.0119ZM17.9375 15.5625H16.75V14.375H17.9375V15.5625ZM20.3125 15.5625H19.125V14.375H20.3125V15.5625ZM15.5625 15.5625H14.375V14.375H15.5625V15.5625ZM14.375 38.125H21.5V32.1875H14.375V38.125ZM15.5625 33.375H20.3125V36.9375H15.5625V33.375ZM29.8125 32.1875H22.6875V38.125H29.8125V32.1875ZM28.625 36.9375H23.875V33.375H28.625V36.9375ZM39.9062 19.125H41.0938V20.3125H39.9062V19.125ZM46.4375 19.125V20.3125H42.2812V19.125H46.4375ZM39.9062 21.5H41.0938V22.6875H39.9062V21.5ZM42.2812 21.5H46.4375V22.6875H42.2812V21.5ZM39.9062 23.875H41.0938V25.0625H39.9062V23.875ZM42.2812 23.875H46.4375V25.0625H42.2812V23.875Z" fill="url(#paint0_linear)"/>
<defs>
<linearGradient id="paint0_linear" x1="30.4063" y1="48.8131" x2="30.4063" y2="12" gradientUnits="userSpaceOnUse">
<stop stop-color="#9F2FFF"/>
<stop offset="1" stop-color="#0BB1D3"/>
</linearGradient>
</defs>
</svg>
