<svg width="60" height="60" viewBox="0 0 60 60" fill="none" xmlns="http://www.w3.org/2000/svg">
<path d="M30 60C46.5685 60 60 46.5685 60 30C60 13.4315 46.5685 0 30 0C13.4315 0 0 13.4315 0 30C0 46.5685 13.4315 60 30 60Z" fill="#210849"/>
<path d="M23.2581 28.1613V26.9355H22.0323V28.1613H20.8065V36.7419H22.0323V37.9677H23.2581V36.7419C24.6101 36.7419 25.7097 35.6424 25.7097 34.2903C25.7097 33.5591 25.3879 32.9009 24.878 32.4516C25.3879 32.0024 25.7097 31.3441 25.7097 30.6129C25.7097 29.2608 24.6101 28.1613 23.2581 28.1613ZM23.2581 35.5161H22.0323V33.0645H23.2581C23.9341 33.0645 24.4839 33.6143 24.4839 34.2903C24.4839 34.9664 23.9341 35.5161 23.2581 35.5161ZM23.2581 31.8387H22.0323V29.3871H23.2581C23.9341 29.3871 24.4839 29.9369 24.4839 30.6129C24.4839 31.2889 23.9341 31.8387 23.2581 31.8387ZM43.4839 12.2258H46.9075L35.8753 23.2581H31.6702C31.7786 22.6556 31.8387 22.0415 31.8387 21.4194C31.8387 15.674 27.1647 11 21.4194 11C15.674 11 11 15.674 11 21.4194C11 24.7021 12.5482 27.777 15.1616 29.7438C14.8539 30.5908 14.6774 31.4998 14.6774 32.4516C14.6774 33.4549 14.8717 34.4117 15.2119 35.2967C11.7539 36.4526 11 38.3643 11 39.8065V43.4839C11 48.4625 19.1436 49 22.6452 49C25.6564 49 32.0955 48.5998 33.8417 45.3226H49V20.8065H44.0968V44.0968H42.871V23.2581H37.9677V44.0968H36.7419V25.7097H31.8387V36.0677C31.349 35.787 30.7674 35.5272 30.0785 35.2967C30.4186 34.4117 30.6129 33.4549 30.6129 32.4516C30.6129 30.8679 30.1428 29.3945 29.343 28.1527C30.2685 27.066 30.9561 25.8212 31.3698 24.4839H36.3828L47.7742 13.0925V16.5161H49V11H43.4839V12.2258ZM45.3226 22.0323H47.7742V44.0968H45.3226V22.0323ZM26.3085 20.8065C26.2742 19.4955 26.1332 18.2568 25.8991 17.129H29.5446C30.1336 18.2396 30.4946 19.4856 30.5823 20.8065H26.3085ZM22.6452 24.4839C21.0915 24.4839 19.645 24.9374 18.4186 25.7097H18.1955C17.9417 24.5672 17.7971 23.3218 17.7615 22.0323H25.0821C25.0551 22.978 24.9675 23.9016 24.8179 24.7928C24.1259 24.596 23.399 24.4839 22.6452 24.4839ZM12.2473 22.0323H16.5357C16.5695 23.3102 16.6988 24.5562 16.936 25.7097H13.2892C12.6941 24.5825 12.3343 23.3316 12.2473 22.0323ZM12.2571 20.8065C12.3447 19.4856 12.7057 18.2396 13.2947 17.129H16.9403C16.7061 18.2568 16.5652 19.4955 16.5308 20.8065H12.2571ZM17.7554 20.8065C17.7928 19.4562 17.9491 18.2188 18.1924 17.129H24.6457C24.8896 18.2188 25.0459 19.4562 25.0827 20.8065H17.7554ZM21.4194 12.2258C22.4711 12.2258 23.5933 13.6134 24.3178 15.9032H18.5209C19.2454 13.6134 20.3676 12.2258 21.4194 12.2258ZM28.757 15.9032H25.5951C25.2114 14.5745 24.6923 13.4535 24.0726 12.6199C25.9646 13.1911 27.5944 14.3605 28.757 15.9032ZM18.7661 12.6199C18.1471 13.4535 17.6279 14.5745 17.2443 15.9032H14.0817C15.2444 14.3605 16.8741 13.1911 18.7661 12.6199ZM14.0713 26.9355H16.909C16.4315 27.4319 16.016 27.9878 15.6789 28.594C15.0691 28.1061 14.5315 27.5478 14.0713 26.9355ZM12.2258 43.4839V42.6675C12.8694 43.2933 13.7207 43.7756 14.6774 44.144V46.4736C13.2561 45.8368 12.2258 44.8905 12.2258 43.4839ZM29.3871 44.5448V46.9253C28.5977 47.1644 27.7549 47.3354 26.9355 47.4592V45.0406C27.7543 44.9248 28.5885 44.7648 29.3871 44.5448ZM25.7097 47.6136C24.7382 47.7135 23.8697 47.7527 23.2581 47.7662V45.3165C23.9727 45.3036 24.8142 45.2662 25.7097 45.1822V47.6136ZM22.0323 47.7668C21.4206 47.7527 20.5521 47.7135 19.5806 47.6142V45.1828C20.4761 45.2668 21.3176 45.3042 22.0323 45.3171V47.7668ZM18.3548 47.4585C17.5354 47.3347 16.6926 47.1637 15.9032 46.9247V44.5442C16.7018 44.7642 17.536 44.9248 18.3548 45.04V47.4585ZM30.6129 46.4736V44.144C31.5696 43.7756 32.421 43.2933 33.0645 42.6675V43.4839C33.0645 44.8905 32.0342 45.8368 30.6129 46.4736ZM39.1935 24.4839H41.6452V44.0968H39.1935V24.4839ZM33.0645 26.9355H35.5161V44.0968H34.2413C34.2701 43.8994 34.2903 43.6972 34.2903 43.4839V39.8065C34.2903 38.9435 34.0213 37.9126 33.0645 36.9761V26.9355ZM33.0645 39.8065C33.0645 43.8896 24.3852 44.0968 22.6452 44.0968C20.9051 44.0968 12.2258 43.8896 12.2258 39.8065C12.2258 38.2975 13.4197 37.163 15.7457 36.4195C15.959 36.7885 16.1968 37.1416 16.4646 37.4707C14.9195 37.904 13.4516 38.6266 13.4516 39.8065C13.4516 41.9124 18.2169 42.871 22.6452 42.871C27.0734 42.871 31.8387 41.9124 31.8387 39.8065C31.8387 38.6266 30.3708 37.904 28.8257 37.4707C29.0935 37.1416 29.3313 36.7885 29.5446 36.4195C31.8706 37.163 33.0645 38.2975 33.0645 39.8065ZM27.8334 38.4856C29.9228 38.9588 30.6129 39.5723 30.6129 39.8065C30.6129 40.3562 27.902 41.6452 22.6452 41.6452C17.3883 41.6452 14.6774 40.3562 14.6774 39.8065C14.6774 39.5723 15.3675 38.9588 17.4569 38.4856C18.8525 39.6875 20.663 40.4194 22.6452 40.4194C24.6273 40.4194 26.4378 39.6875 27.8334 38.4856ZM22.6452 39.1935C18.9279 39.1935 15.9032 36.1689 15.9032 32.4516C15.9032 28.7344 18.9279 25.7097 22.6452 25.7097C26.3624 25.7097 29.3871 28.7344 29.3871 32.4516C29.3871 36.1689 26.3624 39.1935 22.6452 39.1935ZM25.9849 25.2273C26.17 24.1976 26.2778 23.1281 26.3073 22.0323H30.5835C30.4585 23.9065 29.7646 25.6864 28.5824 27.1567C27.861 26.3483 26.9796 25.6895 25.9849 25.2273Z" fill="url(#paint0_linear)"/>
<defs>
<linearGradient id="paint0_linear" x1="30" y1="49" x2="30" y2="11" gradientUnits="userSpaceOnUse">
<stop stop-color="#9F2FFF"/>
<stop offset="1" stop-color="#0BB1D3"/>
</linearGradient>
</defs>
</svg>
