<svg width="60" height="60" viewBox="0 0 60 60" fill="none" xmlns="http://www.w3.org/2000/svg">
<path d="M30 60C46.5685 60 60 46.5685 60 30C60 13.4315 46.5685 0 30 0C13.4315 0 0 13.4315 0 30C0 46.5685 13.4315 60 30 60Z" fill="#210849"/>
<path d="M29.2188 28.625V29.2188C29.2188 29.5459 29.4853 29.8125 29.8125 29.8125H31C31.9821 29.8125 32.7812 30.6117 32.7812 31.5938V33.375H31V34.5625H29.8125V33.375C28.8304 33.375 28.0312 32.5758 28.0312 31.5938H29.2188C29.2188 31.9215 29.4853 32.1875 29.8125 32.1875H31.5938V31.5938C31.5938 31.266 31.3272 31 31 31H29.8125C28.8304 31 28.0312 30.2008 28.0312 29.2188V27.4375H29.8125V26.25H31V27.4375C31.9821 27.4375 32.7812 28.2367 32.7812 29.2188H31.5938C31.5938 28.8916 31.3272 28.625 31 28.625H29.2188ZM19.8927 38.299L15.5625 42.6292L14.7948 41.8615L13.9552 42.701L15.5625 44.3083L20.7323 39.1385L19.8927 38.299ZM46.0177 38.299L41.6875 42.6292L40.9198 41.8615L40.0802 42.701L41.6875 44.3083L46.8573 39.1385L46.0177 38.299ZM15.5625 22.9333L20.7323 17.7635L19.8927 16.924L15.5625 21.2542L14.7948 20.4865L13.9552 21.326L15.5625 22.9333ZM48.8125 13.7812V25.6562C48.8125 26.6383 48.0133 27.4375 47.0312 27.4375H44.0625V28.0312C44.0625 29.0133 43.2633 29.8125 42.2812 29.8125H36.9072C36.925 30.0084 36.9375 30.2056 36.9375 30.4062C36.9375 30.6069 36.925 30.8041 36.9072 31H42.2812C43.2633 31 44.0625 31.7992 44.0625 32.7812V33.375H47.0312C48.0133 33.375 48.8125 34.1742 48.8125 35.1562V47.0312C48.8125 48.0133 48.0133 48.8125 47.0312 48.8125H39.9062C38.9242 48.8125 38.125 48.0133 38.125 47.0312V35.1562C38.125 34.1742 38.9242 33.375 39.9062 33.375H42.875V32.7812C42.875 32.4535 42.6084 32.1875 42.2812 32.1875H36.6846C36.0677 34.3577 34.3577 36.0677 32.1875 36.6846V39.9062C32.1875 40.234 32.4541 40.5 32.7812 40.5H33.4842C33.7301 39.8107 34.3832 39.3125 35.1562 39.3125C36.1383 39.3125 36.9375 40.1117 36.9375 41.0938C36.9375 42.0758 36.1383 42.875 35.1562 42.875C34.3832 42.875 33.7301 42.3768 33.4842 41.6875H32.7812C31.7992 41.6875 31 40.8883 31 39.9062V36.9072C30.8041 36.925 30.6069 36.9375 30.4062 36.9375C30.2056 36.9375 30.0084 36.925 29.8125 36.9072V39.9062C29.8125 40.8883 29.0133 41.6875 28.0312 41.6875H27.3282C27.0824 42.3768 26.4293 42.875 25.6562 42.875C24.6742 42.875 23.875 42.0758 23.875 41.0938C23.875 40.1117 24.6742 39.3125 25.6562 39.3125C26.4293 39.3125 27.0824 39.8107 27.3282 40.5H28.0312C28.3584 40.5 28.625 40.234 28.625 39.9062V36.6846C26.4548 36.0677 24.7448 34.3577 24.1279 32.1875H18.5312C18.2041 32.1875 17.9375 32.4535 17.9375 32.7812V33.375H20.9062C21.8883 33.375 22.6875 34.1742 22.6875 35.1562V47.0312C22.6875 48.0133 21.8883 48.8125 20.9062 48.8125H13.7812C12.7992 48.8125 12 48.0133 12 47.0312V35.1562C12 34.1742 12.7992 33.375 13.7812 33.375H16.75V32.7812C16.75 31.7992 17.5492 31 18.5312 31H23.9053C23.8875 30.8041 23.875 30.6069 23.875 30.4062C23.875 30.2056 23.8875 30.0084 23.9053 29.8125H18.5312C17.5492 29.8125 16.75 29.0133 16.75 28.0312V27.4375H13.7812C12.7992 27.4375 12 26.6383 12 25.6562V13.7812C12 12.7992 12.7992 12 13.7812 12H20.9062C21.8883 12 22.6875 12.7992 22.6875 13.7812V25.6562C22.6875 26.6383 21.8883 27.4375 20.9062 27.4375H17.9375V28.0312C17.9375 28.3584 18.2041 28.625 18.5312 28.625H24.1279C24.7448 26.4548 26.4548 24.7448 28.625 24.1279V20.9062C28.625 20.5791 28.3584 20.3125 28.0312 20.3125H27.3282C27.0824 21.0018 26.4293 21.5 25.6562 21.5C24.6742 21.5 23.875 20.7008 23.875 19.7188C23.875 18.7367 24.6742 17.9375 25.6562 17.9375C26.4293 17.9375 27.0824 18.4357 27.3282 19.125H28.0312C29.0133 19.125 29.8125 19.9242 29.8125 20.9062V23.9053C30.0084 23.8875 30.2056 23.875 30.4062 23.875C30.6069 23.875 30.8041 23.8875 31 23.9053V20.9062C31 19.9242 31.7992 19.125 32.7812 19.125H33.4842C33.7301 18.4357 34.3832 17.9375 35.1562 17.9375C36.1383 17.9375 36.9375 18.7367 36.9375 19.7188C36.9375 20.7008 36.1383 21.5 35.1562 21.5C34.3832 21.5 33.7301 21.0018 33.4842 20.3125H32.7812C32.4541 20.3125 32.1875 20.5791 32.1875 20.9062V24.1279C34.3577 24.7448 36.0677 26.4548 36.6846 28.625H42.2812C42.6084 28.625 42.875 28.3584 42.875 28.0312V27.4375H39.9062C38.9242 27.4375 38.125 26.6383 38.125 25.6562V13.7812C38.125 12.7992 38.9242 12 39.9062 12H47.0312C48.0133 12 48.8125 12.7992 48.8125 13.7812ZM34.5625 19.7188C34.5625 20.0459 34.8291 20.3125 35.1562 20.3125C35.4834 20.3125 35.75 20.0459 35.75 19.7188C35.75 19.3916 35.4834 19.125 35.1562 19.125C34.8291 19.125 34.5625 19.3916 34.5625 19.7188ZM26.25 19.7188C26.25 19.3916 25.9834 19.125 25.6562 19.125C25.3291 19.125 25.0625 19.3916 25.0625 19.7188C25.0625 20.0459 25.3291 20.3125 25.6562 20.3125C25.9834 20.3125 26.25 20.0459 26.25 19.7188ZM21.5 15.5625H13.1875V23.875H21.5V15.5625ZM13.1875 13.7812V14.375H21.5V13.7812C21.5 13.4541 21.2334 13.1875 20.9062 13.1875H13.7812C13.4541 13.1875 13.1875 13.4541 13.1875 13.7812ZM13.7812 26.25H20.9062C21.2334 26.25 21.5 25.9834 21.5 25.6562V25.0625H13.1875V25.6562C13.1875 25.9834 13.4541 26.25 13.7812 26.25ZM13.1875 45.25H21.5V36.9375H13.1875V45.25ZM21.5 47.0312V46.4375H13.1875V47.0312C13.1875 47.359 13.4541 47.625 13.7812 47.625H20.9062C21.2334 47.625 21.5 47.359 21.5 47.0312ZM20.9062 34.5625H13.7812C13.4541 34.5625 13.1875 34.8285 13.1875 35.1562V35.75H21.5V35.1562C21.5 34.8285 21.2334 34.5625 20.9062 34.5625ZM26.25 41.0938C26.25 40.766 25.9834 40.5 25.6562 40.5C25.3291 40.5 25.0625 40.766 25.0625 41.0938C25.0625 41.4215 25.3291 41.6875 25.6562 41.6875C25.9834 41.6875 26.25 41.4215 26.25 41.0938ZM34.5625 41.0938C34.5625 41.4215 34.8291 41.6875 35.1562 41.6875C35.4834 41.6875 35.75 41.4215 35.75 41.0938C35.75 40.766 35.4834 40.5 35.1562 40.5C34.8291 40.5 34.5625 40.766 34.5625 41.0938ZM39.3125 45.25H47.625V36.9375H39.3125V45.25ZM47.625 47.0312V46.4375H39.3125V47.0312C39.3125 47.359 39.5791 47.625 39.9062 47.625H47.0312C47.3584 47.625 47.625 47.359 47.625 47.0312ZM47.0312 34.5625H39.9062C39.5791 34.5625 39.3125 34.8285 39.3125 35.1562V35.75H47.625V35.1562C47.625 34.8285 47.3584 34.5625 47.0312 34.5625ZM35.75 30.4062C35.75 27.4601 33.3524 25.0625 30.4062 25.0625C27.4601 25.0625 25.0625 27.4601 25.0625 30.4062C25.0625 33.353 27.4601 35.75 30.4062 35.75C33.3524 35.75 35.75 33.353 35.75 30.4062ZM39.3125 13.7812V14.375H47.625V13.7812C47.625 13.4541 47.3584 13.1875 47.0312 13.1875H39.9062C39.5791 13.1875 39.3125 13.4541 39.3125 13.7812ZM39.3125 15.5625V23.875H47.625V15.5625H39.3125ZM47.625 25.6562V25.0625H39.3125V25.6562C39.3125 25.9834 39.5791 26.25 39.9062 26.25H47.0312C47.3584 26.25 47.625 25.9834 47.625 25.6562ZM41.6875 22.9333L46.8573 17.7635L46.0177 16.924L41.6875 21.2542L40.9198 20.4865L40.0802 21.326L41.6875 22.9333Z" fill="url(#paint0_linear)"/>
<defs>
<linearGradient id="paint0_linear" x1="30.4062" y1="48.8125" x2="30.4062" y2="12" gradientUnits="userSpaceOnUse">
<stop stop-color="#9F2FFF"/>
<stop offset="1" stop-color="#0BB1D3"/>
</linearGradient>
</defs>
</svg>
