<svg width="60" height="60" viewBox="0 0 60 60" fill="none" xmlns="http://www.w3.org/2000/svg">
<path d="M30 60C46.5685 60 60 46.5685 60 30C60 13.4315 46.5685 0 30 0C13.4315 0 0 13.4315 0 30C0 46.5685 13.4315 60 30 60Z" fill="#210849"/>
<path d="M22.875 21.203V19.9062H21.6875V21.0938H20.5V27.0312H21.6875V28.2188H22.875V26.922C23.5643 26.6762 24.0625 26.0231 24.0625 25.25C24.0625 24.794 23.8903 24.3778 23.6077 24.0625C23.8903 23.7472 24.0625 23.331 24.0625 22.875C24.0625 22.1019 23.5643 21.4488 22.875 21.203ZM22.2812 25.8438H21.6875V24.6562H22.2812C22.609 24.6562 22.875 24.9222 22.875 25.25C22.875 25.5778 22.609 25.8438 22.2812 25.8438ZM22.2812 23.4688H21.6875V22.2812H22.2812C22.609 22.2812 22.875 22.5472 22.875 22.875C22.875 23.2028 22.609 23.4688 22.2812 23.4688ZM32.9688 21.6875V19.9062C32.9688 19.5785 33.2348 19.3125 33.5625 19.3125H34.1865C34.4899 22.9641 37.5525 25.8438 41.2812 25.8438C45.2101 25.8438 48.4062 22.6476 48.4062 18.7188C48.4062 14.7899 45.2101 11.5938 41.2812 11.5938C37.5525 11.5938 34.4899 14.4734 34.1865 18.125H33.5625C32.5804 18.125 31.7812 18.9242 31.7812 19.9062V21.6875C31.7812 22.0153 31.5152 22.2812 31.1875 22.2812H28.5596C27.7817 19.5441 25.2648 17.5312 22.2812 17.5312C18.6802 17.5312 15.75 20.4614 15.75 24.0625C15.75 26.5741 17.1768 28.7555 19.2608 29.848C14.835 31.1548 11.5938 35.2505 11.5938 40.0938V42.4688H32.9688V40.0938C32.9688 35.2505 29.7275 31.1548 25.3017 29.848C26.8727 29.0245 28.0656 27.5811 28.5596 25.8438H31.1875C31.5152 25.8438 31.7812 26.1097 31.7812 26.4375V31.1875C31.7812 32.1696 32.5804 32.9688 33.5625 32.9688H40.0938C40.4215 32.9688 40.6875 33.2348 40.6875 33.5625V34.1865C37.0359 34.4899 34.1562 37.5525 34.1562 41.2812C34.1562 45.2101 37.3524 48.4062 41.2812 48.4062C45.2101 48.4062 48.4062 45.2101 48.4062 41.2812C48.4062 37.5525 45.5266 34.4899 41.875 34.1865V33.5625C41.875 32.5804 41.0758 31.7812 40.0938 31.7812H33.5625C33.2348 31.7812 32.9688 31.5152 32.9688 31.1875V26.4375C32.9688 25.4554 32.1696 24.6562 31.1875 24.6562H28.7822C28.8 24.4603 28.8125 24.2632 28.8125 24.0625C28.8125 23.8618 28.8 23.6647 28.7822 23.4688H31.1875C32.1696 23.4688 32.9688 22.6696 32.9688 21.6875ZM37.2527 23.068C37.7039 21.219 39.3504 19.9062 41.2812 19.9062C43.2121 19.9062 44.8586 21.219 45.3098 23.068C44.25 24.05 42.8369 24.6562 41.2812 24.6562C39.7256 24.6562 38.3125 24.05 37.2527 23.068ZM39.5 16.9375C39.5 15.9554 40.2992 15.1562 41.2812 15.1562C42.2633 15.1562 43.0625 15.9554 43.0625 16.9375C43.0625 17.9196 42.2633 18.7188 41.2812 18.7188C40.2992 18.7188 39.5 17.9196 39.5 16.9375ZM41.2812 12.7812C44.5552 12.7812 47.2188 15.4448 47.2188 18.7188C47.2188 19.9401 46.8471 21.0759 46.2123 22.0212C45.6643 20.6858 44.6045 19.6432 43.2881 19.1112C43.8753 18.5685 44.25 17.7984 44.25 16.9375C44.25 15.3005 42.9182 13.9688 41.2812 13.9688C39.6443 13.9688 38.3125 15.3005 38.3125 16.9375C38.3125 17.7984 38.6872 18.5685 39.2744 19.1112C37.9574 19.6432 36.8982 20.6853 36.3502 22.0212C35.7154 21.0759 35.3438 19.9401 35.3438 18.7188C35.3438 15.4448 38.0073 12.7812 41.2812 12.7812ZM37.2527 45.6305C37.7039 43.7815 39.3504 42.4688 41.2812 42.4688C43.2121 42.4688 44.8586 43.7815 45.3098 45.6305C44.25 46.6125 42.8369 47.2188 41.2812 47.2188C39.7256 47.2188 38.3125 46.6125 37.2527 45.6305ZM39.5 39.5C39.5 38.5179 40.2992 37.7188 41.2812 37.7188C42.2633 37.7188 43.0625 38.5179 43.0625 39.5C43.0625 40.4821 42.2633 41.2812 41.2812 41.2812C40.2992 41.2812 39.5 40.4821 39.5 39.5ZM47.2188 41.2812C47.2188 42.5026 46.8471 43.6384 46.2123 44.5837C45.6643 43.2483 44.6045 42.2057 43.2881 41.6737C43.8753 41.131 44.25 40.3609 44.25 39.5C44.25 37.863 42.9182 36.5312 41.2812 36.5312C39.6443 36.5312 38.3125 37.863 38.3125 39.5C38.3125 40.3609 38.6872 41.131 39.2744 41.6737C37.9574 42.2057 36.8982 43.2477 36.3502 44.5837C35.7154 43.6384 35.3438 42.5026 35.3438 41.2812C35.3438 38.0073 38.0073 35.3438 41.2812 35.3438C44.5552 35.3438 47.2188 38.0073 47.2188 41.2812ZM22.5425 30.6068L23.1683 36.2391C22.8898 36.6458 22.5965 37.0425 22.2824 37.4243C21.9701 37.0425 21.6709 36.6512 21.393 36.2445L22.0194 30.6062C22.1073 30.6044 22.1928 30.5938 22.2812 30.5938C22.3697 30.5938 22.4552 30.6044 22.5425 30.6068ZM24.1789 34.5742L23.7508 30.719C24.3665 30.8152 24.9614 30.9696 25.532 31.1786C25.1972 32.3643 24.7465 33.5013 24.1789 34.5742ZM19.0275 31.1798C19.5993 30.9702 20.1954 30.8152 20.8123 30.719L20.3836 34.5766C19.8112 33.4978 19.3594 32.3566 19.0275 31.1798ZM12.7812 40.0938C12.7812 36.4244 14.876 33.2413 17.9285 31.6589C18.641 34.0957 19.8582 36.3757 21.4874 38.3238C21.1098 38.7234 20.7197 39.1123 20.3017 39.478L19.9062 39.8242V41.2812H16.3438V37.9646C16.3438 37.2645 16.0712 36.6067 15.576 36.1115L14.7365 36.951C15.0072 37.2218 15.1562 37.5822 15.1562 37.9646V41.2812H12.7812V40.0938ZM31.7812 40.0938V41.2812H29.4062V37.9646C29.4062 37.5816 29.5553 37.2218 29.826 36.951L28.9865 36.1115C28.4913 36.6067 28.2188 37.2645 28.2188 37.9646V41.2812H21.0938V40.3633C23.7508 38.0352 25.6454 35.0338 26.6287 31.6566C29.6841 33.2377 31.7812 36.4226 31.7812 40.0938ZM22.2812 29.4062C19.3345 29.4062 16.9375 27.0093 16.9375 24.0625C16.9375 21.1157 19.3345 18.7188 22.2812 18.7188C25.228 18.7188 27.625 21.1157 27.625 24.0625C27.625 27.0093 25.228 29.4062 22.2812 29.4062Z" fill="url(#paint0_linear)"/>
<defs>
<linearGradient id="paint0_linear" x1="30" y1="48.4062" x2="30" y2="11.5938" gradientUnits="userSpaceOnUse">
<stop stop-color="#9F2FFF"/>
<stop offset="1" stop-color="#0BB1D3"/>
</linearGradient>
</defs>
</svg>
