<svg width="18" height="18" viewBox="0 0 18 18" fill="none" xmlns="http://www.w3.org/2000/svg">
<path d="M8.40964 11.741C8.3738 11.7806 8.34041 11.8224 8.30964 11.866C8.2781 11.9125 8.25288 11.9629 8.23464 12.016C8.21061 12.0633 8.19376 12.1138 8.18464 12.166C8.18055 12.2215 8.18055 12.2772 8.18464 12.3327C8.18182 12.442 8.20465 12.5505 8.25131 12.6493C8.28873 12.7528 8.34844 12.8467 8.42621 12.9244C8.50398 13.0022 8.59789 13.0619 8.70131 13.0994C8.80106 13.1434 8.90891 13.1662 9.01797 13.1662C9.12703 13.1662 9.23489 13.1434 9.33464 13.0994C9.43805 13.0619 9.53197 13.0022 9.60973 12.9244C9.6875 12.8467 9.74721 12.7528 9.78464 12.6493C9.82164 12.548 9.83862 12.4405 9.83464 12.3327C9.83527 12.223 9.81425 12.1143 9.77278 12.0128C9.73131 11.9112 9.67021 11.8189 9.59297 11.741C9.5155 11.6629 9.42334 11.6009 9.32179 11.5586C9.22024 11.5163 9.11131 11.4945 9.00131 11.4945C8.8913 11.4945 8.78237 11.5163 8.68082 11.5586C8.57928 11.6009 8.48711 11.6629 8.40964 11.741ZM9.00131 0.666016C7.35313 0.666016 5.74196 1.15476 4.37155 2.07044C3.00114 2.98611 1.93304 4.2876 1.30231 5.81032C0.671579 7.33304 0.506552 9.00859 0.828095 10.6251C1.14964 12.2416 1.94331 13.7265 3.10875 14.8919C4.27419 16.0573 5.75904 16.851 7.37555 17.1726C8.99206 17.4941 10.6676 17.3291 12.1903 16.6983C13.7131 16.0676 15.0145 14.9995 15.9302 13.6291C16.8459 12.2587 17.3346 10.6475 17.3346 8.99935C17.3346 7.905 17.1191 6.82137 16.7003 5.81032C16.2815 4.79927 15.6677 3.88061 14.8939 3.10679C14.12 2.33297 13.2014 1.71914 12.1903 1.30035C11.1793 0.881564 10.0957 0.666016 9.00131 0.666016ZM9.00131 15.666C7.68276 15.666 6.39383 15.275 5.2975 14.5425C4.20118 13.8099 3.34669 12.7687 2.84211 11.5506C2.33752 10.3324 2.2055 8.99195 2.46274 7.69875C2.71997 6.40554 3.35491 5.21765 4.28726 4.2853C5.21961 3.35295 6.4075 2.71802 7.7007 2.46078C8.99391 2.20355 10.3344 2.33557 11.5525 2.84015C12.7707 3.34474 13.8119 4.19922 14.5444 5.29555C15.277 6.39188 15.668 7.68081 15.668 8.99935C15.668 10.7675 14.9656 12.4632 13.7154 13.7134C12.4651 14.9636 10.7694 15.666 9.00131 15.666ZM9.00131 4.83268C8.56219 4.8324 8.13075 4.94778 7.7504 5.16722C7.37004 5.38665 7.05419 5.7024 6.83464 6.08268C6.77434 6.17753 6.73386 6.2836 6.71562 6.3945C6.69738 6.5054 6.70176 6.61884 6.7285 6.728C6.75523 6.83717 6.80378 6.9398 6.87121 7.02971C6.93864 7.11963 7.02356 7.19497 7.12086 7.25122C7.21817 7.30747 7.32585 7.34345 7.43742 7.357C7.54899 7.37055 7.66215 7.36139 7.77009 7.33008C7.87803 7.29877 7.97852 7.24594 8.06551 7.17478C8.15251 7.10362 8.22421 7.0156 8.27631 6.91602C8.34973 6.78885 8.45545 6.68333 8.58276 6.61017C8.71008 6.537 8.85446 6.49877 9.00131 6.49935C9.22232 6.49935 9.43428 6.58715 9.59056 6.74343C9.74684 6.89971 9.83464 7.11167 9.83464 7.33268C9.83464 7.5537 9.74684 7.76566 9.59056 7.92194C9.43428 8.07822 9.22232 8.16602 9.00131 8.16602C8.78029 8.16602 8.56833 8.25381 8.41205 8.41009C8.25577 8.56637 8.16797 8.77834 8.16797 8.99935V9.83268C8.16797 10.0537 8.25577 10.2657 8.41205 10.4219C8.56833 10.5782 8.78029 10.666 9.00131 10.666C9.22232 10.666 9.43428 10.5782 9.59056 10.4219C9.74684 10.2657 9.83464 10.0537 9.83464 9.83268V9.68268C10.3858 9.4827 10.8491 9.09537 11.1436 8.58841C11.4381 8.08144 11.5451 7.48709 11.4458 6.90926C11.3465 6.33142 11.0473 5.80686 10.6005 5.42728C10.1536 5.04769 9.58759 4.83723 9.00131 4.83268Z" fill="#4AA7FA"/>
</svg>
