<svg width="27" height="27" viewBox="0 0 27 27" fill="none" xmlns="http://www.w3.org/2000/svg">
<path d="M21.8334 25.5C24.1346 25.5 26.0001 23.635 26.0001 21.334C26.0001 19.032 24.1346 17.167 21.8334 17.167C19.5322 17.167 17.6667 19.032 17.6667 21.334C17.6667 23.635 19.5322 25.5 21.8334 25.5Z" stroke="white" stroke-width="1.5" stroke-linecap="round" stroke-linejoin="round"/>
<path d="M5.1667 9.33301C7.4679 9.33301 9.3333 7.46799 9.3333 5.16699C9.3333 2.86499 7.4679 1 5.1667 1C2.8655 1 1 2.86499 1 5.16699C1 7.46799 2.8655 9.33301 5.1667 9.33301Z" stroke="white" stroke-width="1.5" stroke-linecap="round" stroke-linejoin="round"/>
<path d="M14.8889 4.66699H19.0556C19.7923 4.66699 20.4988 4.95999 21.0198 5.48099C21.5407 6.00199 21.8334 6.70801 21.8334 7.44501V17.167" stroke="white" stroke-width="1.5" stroke-linecap="round" stroke-linejoin="round"/>
<path d="M5.16669 9.33301V26" stroke="white" stroke-width="1.5" stroke-linecap="round" stroke-linejoin="round"/>
</svg>
