<svg width="24" height="23" viewBox="0 0 24 23" fill="none" xmlns="http://www.w3.org/2000/svg">
<path fill-rule="evenodd" clip-rule="evenodd" d="M4.25 11.4825C4.25 11.1157 4.58579 10.8184 5 10.8184H19C19.4142 10.8184 19.75 11.1157 19.75 11.4825C19.75 11.8493 19.4142 12.1467 19 12.1467H5C4.58579 12.1467 4.25 11.8493 4.25 11.4825Z" fill="white"/>
<path fill-rule="evenodd" clip-rule="evenodd" d="M4.46967 11.0129C4.76256 10.7535 5.23744 10.7535 5.53033 11.0129L9.53033 14.555C9.82322 14.8144 9.82322 15.2349 9.53033 15.4942C9.23744 15.7536 8.76256 15.7536 8.46967 15.4942L4.46967 11.9521C4.17678 11.6928 4.17678 11.2722 4.46967 11.0129Z" fill="white"/>
<path fill-rule="evenodd" clip-rule="evenodd" d="M9.53033 7.46991C9.82322 7.72928 9.82322 8.14979 9.53033 8.40916L5.53033 11.9513C5.23744 12.2106 4.76256 12.2106 4.46967 11.9513C4.17678 11.6919 4.17678 11.2714 4.46967 11.012L8.46967 7.46991C8.76256 7.21055 9.23744 7.21055 9.53033 7.46991Z" fill="white"/>
</svg>
