<svg width="24" height="24" viewBox="0 0 24 24" fill="none" xmlns="http://www.w3.org/2000/svg">
<path d="M12 15C13.6569 15 15 13.657 15 12C15 10.343 13.6569 9 12 9C10.3431 9 9 10.343 9 12C9 13.657 10.3431 15 12 15Z" stroke="white" stroke-width="1.5" stroke-linecap="round" stroke-linejoin="round"/>
<path d="M19.4 15C19.2669 15.302 19.2272 15.636 19.286 15.961C19.3448 16.285 19.4995 16.584 19.73 16.82L19.79 16.88C19.976 17.066 20.1235 17.286 20.2241 17.529C20.3248 17.772 20.3766 18.032 20.3766 18.295C20.3766 18.558 20.3248 18.818 20.2241 19.061C20.1235 19.304 19.976 19.524 19.79 19.71C19.6043 19.896 19.3837 20.043 19.1409 20.144C18.8981 20.245 18.6378 20.297 18.375 20.297C18.1122 20.297 17.8519 20.245 17.6091 20.144C17.3663 20.043 17.1457 19.896 16.96 19.71L16.9 19.65C16.6643 19.419 16.365 19.265 16.0406 19.206C15.7162 19.147 15.3816 19.187 15.08 19.32C14.7842 19.447 14.532 19.657 14.3543 19.926C14.1766 20.194 14.0813 20.508 14.08 20.83V21C14.08 21.53 13.8693 22.039 13.4942 22.414C13.1191 22.789 12.6104 23 12.08 23C11.5496 23 11.0409 22.789 10.6658 22.414C10.2907 22.039 10.08 21.53 10.08 21V20.91C10.0723 20.579 9.9651 20.258 9.7725 19.989C9.5799 19.719 9.3107 19.514 9 19.4C8.6984 19.267 8.3638 19.227 8.0394 19.286C7.715 19.345 7.4157 19.499 7.18 19.73L7.12 19.79C6.9343 19.976 6.7137 20.123 6.4709 20.224C6.2281 20.325 5.9678 20.377 5.705 20.377C5.4422 20.377 5.1819 20.325 4.9391 20.224C4.6963 20.123 4.4757 19.976 4.29 19.79C4.104 19.604 3.9565 19.384 3.8559 19.141C3.7552 18.898 3.7034 18.638 3.7034 18.375C3.7034 18.112 3.7552 17.852 3.8559 17.609C3.9565 17.366 4.104 17.146 4.29 16.96L4.35 16.9C4.5805 16.664 4.7352 16.365 4.794 16.041C4.8528 15.716 4.8131 15.382 4.68 15.08C4.5532 14.784 4.3428 14.532 4.0745 14.354C3.8062 14.177 3.4918 14.081 3.17 14.08H3C2.4696 14.08 1.9609 13.869 1.5858 13.494C1.2107 13.119 1 12.61 1 12.08C1 11.55 1.2107 11.041 1.5858 10.666C1.9609 10.291 2.4696 10.08 3 10.08H3.09C3.421 10.072 3.742 9.96499 4.0113 9.77299C4.2806 9.57999 4.4857 9.311 4.6 9C4.7331 8.698 4.7728 8.364 4.714 8.039C4.6552 7.715 4.5005 7.41599 4.27 7.17999L4.21 7.12C4.024 6.934 3.8765 6.71399 3.7759 6.47099C3.6752 6.22799 3.6234 5.968 3.6234 5.705C3.6234 5.442 3.6752 5.182 3.7759 4.939C3.8765 4.696 4.024 4.47599 4.21 4.28999C4.3957 4.10399 4.6163 3.957 4.8591 3.856C5.1019 3.755 5.3622 3.703 5.625 3.703C5.8878 3.703 6.1481 3.755 6.3909 3.856C6.6337 3.957 6.8543 4.10399 7.04 4.28999L7.1 4.35001C7.3357 4.58101 7.635 4.73501 7.9594 4.79401C8.2838 4.85301 8.6184 4.81299 8.92 4.67999H9C9.2958 4.55299 9.548 4.34301 9.7257 4.07401C9.9034 3.80601 9.9987 3.492 10 3.17V3C10 2.47 10.2107 1.961 10.5858 1.586C10.9609 1.211 11.4696 1 12 1C12.5304 1 13.0391 1.211 13.4142 1.586C13.7893 1.961 14 2.47 14 3V3.09C14.0013 3.412 14.0966 3.726 14.2743 3.994C14.452 4.263 14.7042 4.47301 15 4.60001C15.3016 4.73301 15.6362 4.773 15.9606 4.714C16.285 4.655 16.5843 4.501 16.82 4.27L16.88 4.21001C17.0657 4.02401 17.2863 3.877 17.5291 3.776C17.7719 3.675 18.0322 3.623 18.295 3.623C18.5578 3.623 18.8181 3.675 19.0609 3.776C19.3037 3.877 19.5243 4.02401 19.71 4.21001C19.896 4.39601 20.0435 4.61599 20.1441 4.85899C20.2448 5.10199 20.2966 5.362 20.2966 5.625C20.2966 5.888 20.2448 6.14801 20.1441 6.39101C20.0435 6.63401 19.896 6.85399 19.71 7.03999L19.65 7.10001C19.4195 7.33601 19.2648 7.635 19.206 7.959C19.1472 8.284 19.1869 8.618 19.32 8.92V9C19.4468 9.296 19.6572 9.548 19.9255 9.726C20.1938 9.903 20.5082 9.999 20.83 10H21C21.5304 10 22.0391 10.211 22.4142 10.586C22.7893 10.961 23 11.47 23 12C23 12.53 22.7893 13.039 22.4142 13.414C22.0391 13.789 21.5304 14 21 14H20.91C20.5882 14.001 20.2738 14.097 20.0055 14.274C19.7372 14.452 19.5268 14.704 19.4 15Z" stroke="white" stroke-width="1.5" stroke-linecap="round" stroke-linejoin="round"/>
</svg>
